<svg width="1280" height="720" viewBox="0 0 1280 720" fill="none" xmlns="http://www.w3.org/2000/svg">
<rect width="1280" height="720" fill="#97D3FF"/>
<path d="M278.46 532.64H284.82V539H278.46V532.64ZM289.769 497H307.229V503H296.369V514.7H304.889V520.7H296.369V539H289.769V497ZM310.394 497H328.394V503H316.994V514.1H326.054V520.1H316.994V533H328.394V539H310.394V497ZM332.19 497H338.79V514.1H345.87V497H352.47V539H345.87V520.1H338.79V539H332.19V497ZM357.386 497H367.346C370.746 497 373.226 497.8 374.786 499.4C376.346 500.96 377.126 503.38 377.126 506.66V508.34C377.126 510.5 376.766 512.26 376.046 513.62C375.366 514.98 374.306 515.96 372.866 516.56V516.68C376.146 517.8 377.786 520.72 377.786 525.44V529.04C377.786 532.28 376.926 534.76 375.206 536.48C373.526 538.16 371.046 539 367.766 539H357.386V497ZM366.566 514.1C367.886 514.1 368.866 513.76 369.506 513.08C370.186 512.4 370.526 511.26 370.526 509.66V507.32C370.526 505.8 370.246 504.7 369.686 504.02C369.166 503.34 368.326 503 367.166 503H363.986V514.1H366.566ZM367.766 533C368.926 533 369.786 532.7 370.346 532.1C370.906 531.46 371.186 530.38 371.186 528.86V525.2C371.186 523.28 370.846 521.96 370.166 521.24C369.526 520.48 368.446 520.1 366.926 520.1H363.986V533H367.766ZM391.004 539.6C387.804 539.6 385.364 538.7 383.684 536.9C382.004 535.06 381.164 532.44 381.164 529.04V506.96C381.164 503.56 382.004 500.96 383.684 499.16C385.364 497.32 387.804 496.4 391.004 496.4C394.204 496.4 396.644 497.32 398.324 499.16C400.004 500.96 400.844 503.56 400.844 506.96V510.56H394.604V506.54C394.604 503.78 393.464 502.4 391.184 502.4C388.904 502.4 387.764 503.78 387.764 506.54V529.52C387.764 532.24 388.904 533.6 391.184 533.6C393.464 533.6 394.604 532.24 394.604 529.52V521.3H391.304V515.3H400.844V529.04C400.844 532.44 400.004 535.06 398.324 536.9C396.644 538.7 394.204 539.6 391.004 539.6Z" fill="white"/>
<path d="M404.46 165.64H410.82V172H404.46V165.64ZM424.777 172.6C421.577 172.6 419.137 171.7 417.457 169.9C415.777 168.06 414.937 165.44 414.937 162.04V139.96C414.937 136.56 415.777 133.96 417.457 132.16C419.137 130.32 421.577 129.4 424.777 129.4C427.977 129.4 430.417 130.32 432.097 132.16C433.777 133.96 434.617 136.56 434.617 139.96V143.56H428.377V139.54C428.377 136.78 427.237 135.4 424.957 135.4C422.677 135.4 421.537 136.78 421.537 139.54V162.52C421.537 165.24 422.677 166.6 424.957 166.6C427.237 166.6 428.377 165.24 428.377 162.52V154.3H425.077V148.3H434.617V162.04C434.617 165.44 433.777 168.06 432.097 169.9C430.417 171.7 427.977 172.6 424.777 172.6ZM438.855 130H445.455V172H438.855V130ZM455.558 136H448.658V130H469.058V136H462.158V172H455.558V136ZM481.319 172.6C478.159 172.6 475.739 171.7 474.059 169.9C472.419 168.1 471.599 165.56 471.599 162.28V139.72C471.599 136.44 472.419 133.9 474.059 132.1C475.739 130.3 478.159 129.4 481.319 129.4C484.479 129.4 486.879 130.3 488.519 132.1C490.199 133.9 491.039 136.44 491.039 139.72V144.16H484.799V139.3C484.799 136.7 483.699 135.4 481.499 135.4C479.299 135.4 478.199 136.7 478.199 139.3V162.76C478.199 165.32 479.299 166.6 481.499 166.6C483.699 166.6 484.799 165.32 484.799 162.76V156.34H491.039V162.28C491.039 165.56 490.199 168.1 488.519 169.9C486.879 171.7 484.479 172.6 481.319 172.6ZM504.645 172.6C501.405 172.6 498.925 171.68 497.205 169.84C495.485 168 494.625 165.4 494.625 162.04V139.96C494.625 136.6 495.485 134 497.205 132.16C498.925 130.32 501.405 129.4 504.645 129.4C507.885 129.4 510.365 130.32 512.085 132.16C513.805 134 514.665 136.6 514.665 139.96V162.04C514.665 165.4 513.805 168 512.085 169.84C510.365 171.68 507.885 172.6 504.645 172.6ZM504.645 166.6C506.925 166.6 508.065 165.22 508.065 162.46V139.54C508.065 136.78 506.925 135.4 504.645 135.4C502.365 135.4 501.225 136.78 501.225 139.54V162.46C501.225 165.22 502.365 166.6 504.645 166.6ZM519.128 130H527.408L533.828 155.14H533.948V130H539.828V172H533.048L525.128 141.34H525.008V172H519.128V130ZM544.733 130H562.193V136H551.333V147.7H559.853V153.7H551.333V172H544.733V130ZM565.358 130H571.958V172H565.358V130ZM586.261 172.6C583.061 172.6 580.621 171.7 578.941 169.9C577.261 168.06 576.421 165.44 576.421 162.04V139.96C576.421 136.56 577.261 133.96 578.941 132.16C580.621 130.32 583.061 129.4 586.261 129.4C589.461 129.4 591.901 130.32 593.581 132.16C595.261 133.96 596.101 136.56 596.101 139.96V143.56H589.861V139.54C589.861 136.78 588.721 135.4 586.441 135.4C584.161 135.4 583.021 136.78 583.021 139.54V162.52C583.021 165.24 584.161 166.6 586.441 166.6C588.721 166.6 589.861 165.24 589.861 162.52V154.3H586.561V148.3H596.101V162.04C596.101 165.44 595.261 168.06 593.581 169.9C591.901 171.7 589.461 172.6 586.261 172.6Z" fill="white"/>
<path d="M38.4429 625.921H44.8029V632.281H38.4429V625.921ZM49.0174 626.401L61.2574 596.281H49.6174V590.281H68.3374V596.161L56.0974 626.281H68.3374V632.281H49.0174V626.401ZM80.6557 632.881C77.4557 632.881 75.0357 631.981 73.3957 630.181C71.7557 628.341 70.9357 625.721 70.9357 622.321V619.921H77.1757V622.801C77.1757 625.521 78.3157 626.881 80.5957 626.881C81.7157 626.881 82.5557 626.561 83.1157 625.921C83.7157 625.241 84.0157 624.161 84.0157 622.681C84.0157 620.921 83.6157 619.381 82.8157 618.061C82.0157 616.701 80.5357 615.081 78.3757 613.201C75.6557 610.801 73.7557 608.641 72.6757 606.721C71.5957 604.761 71.0557 602.561 71.0557 600.121C71.0557 596.801 71.8957 594.241 73.5757 592.441C75.2557 590.601 77.6957 589.681 80.8957 589.681C84.0557 589.681 86.4357 590.601 88.0357 592.441C89.6757 594.241 90.4957 596.841 90.4957 600.241V601.981H84.2557V599.821C84.2557 598.381 83.9757 597.341 83.4157 596.701C82.8557 596.021 82.0357 595.681 80.9557 595.681C78.7557 595.681 77.6557 597.021 77.6557 599.701C77.6557 601.221 78.0557 602.641 78.8557 603.961C79.6957 605.281 81.1957 606.881 83.3557 608.761C86.1157 611.161 88.0157 613.341 89.0557 615.301C90.0957 617.261 90.6157 619.561 90.6157 622.201C90.6157 625.641 89.7557 628.281 88.0357 630.121C86.3557 631.961 83.8957 632.881 80.6557 632.881ZM94.3999 590.281H101V607.381H108.08V590.281H114.68V632.281H108.08V613.381H101V632.281H94.3999V590.281ZM119.595 590.281H137.595V596.281H126.195V607.381H135.255V613.381H126.195V626.281H137.595V632.281H119.595V590.281ZM141.392 590.281H149.672L156.092 615.421H156.212V590.281H162.092V632.281H155.312L147.392 601.621H147.272V632.281H141.392V590.281ZM165.258 590.281H171.918L176.238 622.861H176.358L180.678 590.281H186.738L180.378 632.281H171.618L165.258 590.281Z" fill="white"/>
<path d="M855.46 260.64H861.82V267H855.46V260.64ZM861.865 225H868.525L872.845 257.58H872.965L877.285 225H883.345L876.985 267H868.225L861.865 225ZM886.515 225H893.115V267H886.515V225ZM898.058 225H907.478L911.678 255.06H911.798L915.998 225H925.418V267H919.178V235.2H919.058L914.258 267H908.738L903.938 235.2H903.818V267H898.058V225ZM930.343 225H936.943V267H930.343V225ZM941.886 225H950.166L956.586 250.14H956.706V225H962.586V267H955.806L947.886 236.34H947.766V267H941.886V225ZM967.491 225H984.951V231H974.091V242.7H982.611V248.7H974.091V267H967.491V225ZM997.656 267.6C994.416 267.6 991.936 266.68 990.216 264.84C988.496 263 987.636 260.4 987.636 257.04V234.96C987.636 231.6 988.496 229 990.216 227.16C991.936 225.32 994.416 224.4 997.656 224.4C1000.9 224.4 1003.38 225.32 1005.1 227.16C1006.82 229 1007.68 231.6 1007.68 234.96V257.04C1007.68 260.4 1006.82 263 1005.1 264.84C1003.38 266.68 1000.9 267.6 997.656 267.6ZM997.656 261.6C999.936 261.6 1001.08 260.22 1001.08 257.46V234.54C1001.08 231.78 999.936 230.4 997.656 230.4C995.376 230.4 994.236 231.78 994.236 234.54V257.46C994.236 260.22 995.376 261.6 997.656 261.6Z" fill="white"/>
<path d="M115.53 261.678H121.89V268.038H115.53V261.678ZM135.787 268.638C132.627 268.638 130.207 267.738 128.527 265.938C126.887 264.138 126.067 261.598 126.067 258.318V235.758C126.067 232.478 126.887 229.938 128.527 228.138C130.207 226.338 132.627 225.438 135.787 225.438C138.947 225.438 141.347 226.338 142.987 228.138C144.667 229.938 145.507 232.478 145.507 235.758V240.198H139.267V235.338C139.267 232.738 138.167 231.438 135.967 231.438C133.767 231.438 132.667 232.738 132.667 235.338V258.798C132.667 261.358 133.767 262.638 135.967 262.638C138.167 262.638 139.267 261.358 139.267 258.798V252.378H145.507V258.318C145.507 261.598 144.667 264.138 142.987 265.938C141.347 267.738 138.947 268.638 135.787 268.638ZM159.113 268.638C155.873 268.638 153.393 267.718 151.673 265.878C149.953 264.038 149.093 261.438 149.093 258.078V235.998C149.093 232.638 149.953 230.038 151.673 228.198C153.393 226.358 155.873 225.438 159.113 225.438C162.353 225.438 164.833 226.358 166.553 228.198C168.273 230.038 169.133 232.638 169.133 235.998V258.078C169.133 261.438 168.273 264.038 166.553 265.878C164.833 267.718 162.353 268.638 159.113 268.638ZM159.113 262.638C161.393 262.638 162.533 261.258 162.533 258.498V235.578C162.533 232.818 161.393 231.438 159.113 231.438C156.833 231.438 155.693 232.818 155.693 235.578V258.498C155.693 261.258 156.833 262.638 159.113 262.638ZM173.596 226.038H181.876L188.296 251.178H188.416V226.038H194.296V268.038H187.516L179.596 237.378H179.476V268.038H173.596V226.038ZM199.202 226.038H216.662V232.038H205.802V243.738H214.322V249.738H205.802V268.038H199.202V226.038ZM219.827 226.038H226.427V268.038H219.827V226.038ZM240.73 268.638C237.53 268.638 235.09 267.738 233.41 265.938C231.73 264.098 230.89 261.478 230.89 258.078V235.998C230.89 232.598 231.73 229.998 233.41 228.198C235.09 226.358 237.53 225.438 240.73 225.438C243.93 225.438 246.37 226.358 248.05 228.198C249.73 229.998 250.57 232.598 250.57 235.998V239.598H244.33V235.578C244.33 232.818 243.19 231.438 240.91 231.438C238.63 231.438 237.49 232.818 237.49 235.578V258.558C237.49 261.278 238.63 262.638 240.91 262.638C243.19 262.638 244.33 261.278 244.33 258.558V250.338H241.03V244.338H250.57V258.078C250.57 261.478 249.73 264.098 248.05 265.938C246.37 267.738 243.93 268.638 240.73 268.638Z" fill="white"/>
<path d="M1067.46 360.64H1073.82V367H1067.46V360.64ZM1078.77 325H1088.73C1092.13 325 1094.61 325.8 1096.17 327.4C1097.73 328.96 1098.51 331.38 1098.51 334.66V336.34C1098.51 338.5 1098.15 340.26 1097.43 341.62C1096.75 342.98 1095.69 343.96 1094.25 344.56V344.68C1097.53 345.8 1099.17 348.72 1099.17 353.44V357.04C1099.17 360.28 1098.31 362.76 1096.59 364.48C1094.91 366.16 1092.43 367 1089.15 367H1078.77V325ZM1087.95 342.1C1089.27 342.1 1090.25 341.76 1090.89 341.08C1091.57 340.4 1091.91 339.26 1091.91 337.66V335.32C1091.91 333.8 1091.63 332.7 1091.07 332.02C1090.55 331.34 1089.71 331 1088.55 331H1085.37V342.1H1087.95ZM1089.15 361C1090.31 361 1091.17 360.7 1091.73 360.1C1092.29 359.46 1092.57 358.38 1092.57 356.86V353.2C1092.57 351.28 1092.23 349.96 1091.55 349.24C1090.91 348.48 1089.83 348.1 1088.31 348.1H1085.37V361H1089.15ZM1108.13 325H1117.07L1123.91 367H1117.31L1116.11 358.66V358.78H1108.61L1107.41 367H1101.29L1108.13 325ZM1115.33 353.08L1112.39 332.32H1112.27L1109.39 353.08H1115.33ZM1135.51 367.6C1132.31 367.6 1129.89 366.7 1128.25 364.9C1126.61 363.06 1125.79 360.44 1125.79 357.04V354.64H1132.03V357.52C1132.03 360.24 1133.17 361.6 1135.45 361.6C1136.57 361.6 1137.41 361.28 1137.97 360.64C1138.57 359.96 1138.87 358.88 1138.87 357.4C1138.87 355.64 1138.47 354.1 1137.67 352.78C1136.87 351.42 1135.39 349.8 1133.23 347.92C1130.51 345.52 1128.61 343.36 1127.53 341.44C1126.45 339.48 1125.91 337.28 1125.91 334.84C1125.91 331.52 1126.75 328.96 1128.43 327.16C1130.11 325.32 1132.55 324.4 1135.75 324.4C1138.91 324.4 1141.29 325.32 1142.89 327.16C1144.53 328.96 1145.35 331.56 1145.35 334.96V336.7H1139.11V334.54C1139.11 333.1 1138.83 332.06 1138.27 331.42C1137.71 330.74 1136.89 330.4 1135.81 330.4C1133.61 330.4 1132.51 331.74 1132.51 334.42C1132.51 335.94 1132.91 337.36 1133.71 338.68C1134.55 340 1136.05 341.6 1138.21 343.48C1140.97 345.88 1142.87 348.06 1143.91 350.02C1144.95 351.98 1145.47 354.28 1145.47 356.92C1145.47 360.36 1144.61 363 1142.89 364.84C1141.21 366.68 1138.75 367.6 1135.51 367.6ZM1149.26 325H1155.86V342.1H1162.94V325H1169.54V367H1162.94V348.1H1155.86V367H1149.26V325ZM1174.45 325H1184.23C1187.63 325 1190.11 325.8 1191.67 327.4C1193.23 328.96 1194.01 331.38 1194.01 334.66V337.24C1194.01 341.6 1192.57 344.36 1189.69 345.52V345.64C1191.29 346.12 1192.41 347.1 1193.05 348.58C1193.73 350.06 1194.07 352.04 1194.07 354.52V361.9C1194.07 363.1 1194.11 364.08 1194.19 364.84C1194.27 365.56 1194.47 366.28 1194.79 367H1188.07C1187.83 366.32 1187.67 365.68 1187.59 365.08C1187.51 364.48 1187.47 363.4 1187.47 361.84V354.16C1187.47 352.24 1187.15 350.9 1186.51 350.14C1185.91 349.38 1184.85 349 1183.33 349H1181.05V367H1174.45V325ZM1183.45 343C1184.77 343 1185.75 342.66 1186.39 341.98C1187.07 341.3 1187.41 340.16 1187.41 338.56V335.32C1187.41 333.8 1187.13 332.7 1186.57 332.02C1186.05 331.34 1185.21 331 1184.05 331H1181.05V343H1183.45ZM1207.95 367.6C1204.79 367.6 1202.37 366.7 1200.69 364.9C1199.05 363.1 1198.23 360.56 1198.23 357.28V334.72C1198.23 331.44 1199.05 328.9 1200.69 327.1C1202.37 325.3 1204.79 324.4 1207.95 324.4C1211.11 324.4 1213.51 325.3 1215.15 327.1C1216.83 328.9 1217.67 331.44 1217.67 334.72V339.16H1211.43V334.3C1211.43 331.7 1210.33 330.4 1208.13 330.4C1205.93 330.4 1204.83 331.7 1204.83 334.3V357.76C1204.83 360.32 1205.93 361.6 1208.13 361.6C1210.33 361.6 1211.43 360.32 1211.43 357.76V351.34H1217.67V357.28C1217.67 360.56 1216.83 363.1 1215.15 364.9C1213.51 366.7 1211.11 367.6 1207.95 367.6Z" fill="white"/>
<path d="M559.46 657.64H565.82V664H559.46V657.64ZM565.865 622H572.525L576.845 654.58H576.965L581.285 622H587.345L580.985 664H572.225L565.865 622ZM590.515 622H597.115V664H590.515V622ZM602.058 622H611.478L615.678 652.06H615.798L619.998 622H629.418V664H623.178V632.2H623.058L618.258 664H612.738L607.938 632.2H607.818V664H602.058V622ZM634.343 622H644.123C647.523 622 650.003 622.8 651.563 624.4C653.123 625.96 653.903 628.38 653.903 631.66V634.24C653.903 638.6 652.463 641.36 649.583 642.52V642.64C651.183 643.12 652.303 644.1 652.943 645.58C653.623 647.06 653.963 649.04 653.963 651.52V658.9C653.963 660.1 654.003 661.08 654.083 661.84C654.163 662.56 654.363 663.28 654.683 664H647.963C647.723 663.32 647.563 662.68 647.483 662.08C647.403 661.48 647.363 660.4 647.363 658.84V651.16C647.363 649.24 647.043 647.9 646.403 647.14C645.803 646.38 644.743 646 643.223 646H640.943V664H634.343V622ZM643.343 640C644.663 640 645.643 639.66 646.283 638.98C646.963 638.3 647.303 637.16 647.303 635.56V632.32C647.303 630.8 647.023 629.7 646.463 629.02C645.943 628.34 645.103 628 643.943 628H640.943V640H643.343ZM667.842 664.6C664.682 664.6 662.262 663.7 660.582 661.9C658.942 660.1 658.122 657.56 658.122 654.28V631.72C658.122 628.44 658.942 625.9 660.582 624.1C662.262 622.3 664.682 621.4 667.842 621.4C671.002 621.4 673.402 622.3 675.042 624.1C676.722 625.9 677.562 628.44 677.562 631.72V636.16H671.322V631.3C671.322 628.7 670.222 627.4 668.022 627.4C665.822 627.4 664.722 628.7 664.722 631.3V654.76C664.722 657.32 665.822 658.6 668.022 658.6C670.222 658.6 671.322 657.32 671.322 654.76V648.34H677.562V654.28C677.562 657.56 676.722 660.1 675.042 661.9C673.402 663.7 671.002 664.6 667.842 664.6Z" fill="white"/>
<path d="M1108.61 650.668H1114.97V657.028H1108.61V650.668ZM1119.18 651.148L1131.42 621.028H1119.78V615.028H1138.5V620.908L1126.26 651.028H1138.5V657.028H1119.18V651.148ZM1150.82 657.628C1147.62 657.628 1145.2 656.728 1143.56 654.928C1141.92 653.088 1141.1 650.468 1141.1 647.068V644.668H1147.34V647.548C1147.34 650.268 1148.48 651.628 1150.76 651.628C1151.88 651.628 1152.72 651.308 1153.28 650.668C1153.88 649.988 1154.18 648.908 1154.18 647.428C1154.18 645.668 1153.78 644.128 1152.98 642.808C1152.18 641.448 1150.7 639.828 1148.54 637.948C1145.82 635.548 1143.92 633.388 1142.84 631.468C1141.76 629.508 1141.22 627.308 1141.22 624.868C1141.22 621.548 1142.06 618.988 1143.74 617.188C1145.42 615.348 1147.86 614.428 1151.06 614.428C1154.22 614.428 1156.6 615.348 1158.2 617.188C1159.84 618.988 1160.66 621.588 1160.66 624.988V626.728H1154.42V624.568C1154.42 623.128 1154.14 622.088 1153.58 621.448C1153.02 620.768 1152.2 620.428 1151.12 620.428C1148.92 620.428 1147.82 621.768 1147.82 624.448C1147.82 625.968 1148.22 627.388 1149.02 628.708C1149.86 630.028 1151.36 631.628 1153.52 633.508C1156.28 635.908 1158.18 638.088 1159.22 640.048C1160.26 642.008 1160.78 644.308 1160.78 646.948C1160.78 650.388 1159.92 653.028 1158.2 654.868C1156.52 656.708 1154.06 657.628 1150.82 657.628ZM1164.56 615.028H1171.16V632.128H1178.24V615.028H1184.84V657.028H1178.24V638.128H1171.16V657.028H1164.56V615.028ZM1189.76 615.028H1199.54C1202.94 615.028 1205.42 615.828 1206.98 617.428C1208.54 618.988 1209.32 621.408 1209.32 624.688V627.268C1209.32 631.628 1207.88 634.388 1205 635.548V635.668C1206.6 636.148 1207.72 637.128 1208.36 638.608C1209.04 640.088 1209.38 642.068 1209.38 644.548V651.928C1209.38 653.128 1209.42 654.108 1209.5 654.868C1209.58 655.588 1209.78 656.308 1210.1 657.028H1203.38C1203.14 656.348 1202.98 655.708 1202.9 655.108C1202.82 654.508 1202.78 653.428 1202.78 651.868V644.188C1202.78 642.268 1202.46 640.928 1201.82 640.168C1201.22 639.408 1200.16 639.028 1198.64 639.028H1196.36V657.028H1189.76V615.028ZM1198.76 633.028C1200.08 633.028 1201.06 632.688 1201.7 632.008C1202.38 631.328 1202.72 630.188 1202.72 628.588V625.348C1202.72 623.828 1202.44 622.728 1201.88 622.048C1201.36 621.368 1200.52 621.028 1199.36 621.028H1196.36V633.028H1198.76ZM1223.26 657.628C1220.1 657.628 1217.68 656.728 1216 654.928C1214.36 653.128 1213.54 650.588 1213.54 647.308V624.748C1213.54 621.468 1214.36 618.928 1216 617.128C1217.68 615.328 1220.1 614.428 1223.26 614.428C1226.42 614.428 1228.82 615.328 1230.46 617.128C1232.14 618.928 1232.98 621.468 1232.98 624.748V629.188H1226.74V624.328C1226.74 621.728 1225.64 620.428 1223.44 620.428C1221.24 620.428 1220.14 621.728 1220.14 624.328V647.788C1220.14 650.348 1221.24 651.628 1223.44 651.628C1225.64 651.628 1226.74 650.348 1226.74 647.788V641.368H1232.98V647.308C1232.98 650.588 1232.14 653.128 1230.46 654.928C1228.82 656.728 1226.42 657.628 1223.26 657.628Z" fill="white"/>
<path d="M70.46 95.64H76.82V102H70.46V95.64ZM87.8816 80.52L80.6216 60H87.5816L92.0216 73.56H92.1416L96.7016 60H102.942L95.6816 80.52L103.302 102H96.3416L91.5416 87.36H91.4216L86.5016 102H80.2616L87.8816 80.52ZM106.437 60H113.037V102H106.437V60ZM117.98 60H126.26L132.68 85.14H132.8V60H138.68V102H131.9L123.98 71.34H123.86V102H117.98V60ZM143.585 60H150.185V102H143.585V60ZM160.288 66H153.388V60H173.788V66H166.888V102H160.288V66ZM176.983 60H186.763C190.163 60 192.643 60.8 194.203 62.4C195.763 63.96 196.543 66.38 196.543 69.66V72.24C196.543 76.6 195.103 79.36 192.223 80.52V80.64C193.823 81.12 194.943 82.1 195.583 83.58C196.263 85.06 196.603 87.04 196.603 89.52V96.9C196.603 98.1 196.643 99.08 196.723 99.84C196.803 100.56 197.003 101.28 197.323 102H190.603C190.363 101.32 190.203 100.68 190.123 100.08C190.043 99.48 190.003 98.4 190.003 96.84V89.16C190.003 87.24 189.683 85.9 189.043 85.14C188.443 84.38 187.383 84 185.863 84H183.583V102H176.983V60ZM185.983 78C187.303 78 188.283 77.66 188.923 76.98C189.603 76.3 189.943 75.16 189.943 73.56V70.32C189.943 68.8 189.663 67.7 189.103 67.02C188.583 66.34 187.743 66 186.583 66H183.583V78H185.983ZM210.483 102.6C207.323 102.6 204.903 101.7 203.223 99.9C201.583 98.1 200.763 95.56 200.763 92.28V69.72C200.763 66.44 201.583 63.9 203.223 62.1C204.903 60.3 207.323 59.4 210.483 59.4C213.643 59.4 216.043 60.3 217.683 62.1C219.363 63.9 220.203 66.44 220.203 69.72V74.16H213.963V69.3C213.963 66.7 212.863 65.4 210.663 65.4C208.463 65.4 207.363 66.7 207.363 69.3V92.76C207.363 95.32 208.463 96.6 210.663 96.6C212.863 96.6 213.963 95.32 213.963 92.76V86.34H220.203V92.28C220.203 95.56 219.363 98.1 217.683 99.9C216.043 101.7 213.643 102.6 210.483 102.6Z" fill="white"/>
<path d="M922.46 88.64H928.82V95H922.46V88.64ZM939.882 73.52L932.622 53H939.582L944.022 66.56H944.142L948.702 53H954.942L947.682 73.52L955.302 95H948.342L943.542 80.36H943.422L938.502 95H932.262L939.882 73.52ZM966.665 95.6C963.465 95.6 961.045 94.7 959.405 92.9C957.765 91.06 956.945 88.44 956.945 85.04V82.64H963.185V85.52C963.185 88.24 964.325 89.6 966.605 89.6C967.725 89.6 968.565 89.28 969.125 88.64C969.725 87.96 970.025 86.88 970.025 85.4C970.025 83.64 969.625 82.1 968.825 80.78C968.025 79.42 966.545 77.8 964.385 75.92C961.665 73.52 959.765 71.36 958.685 69.44C957.605 67.48 957.065 65.28 957.065 62.84C957.065 59.52 957.905 56.96 959.585 55.16C961.265 53.32 963.705 52.4 966.905 52.4C970.065 52.4 972.445 53.32 974.045 55.16C975.685 56.96 976.505 59.56 976.505 62.96V64.7H970.265V62.54C970.265 61.1 969.985 60.06 969.425 59.42C968.865 58.74 968.045 58.4 966.965 58.4C964.765 58.4 963.665 59.74 963.665 62.42C963.665 63.94 964.065 65.36 964.865 66.68C965.705 68 967.205 69.6 969.365 71.48C972.125 73.88 974.025 76.06 975.065 78.02C976.105 79.98 976.625 82.28 976.625 84.92C976.625 88.36 975.765 91 974.045 92.84C972.365 94.68 969.905 95.6 966.665 95.6ZM980.409 53H998.409V59H987.009V70.1H996.069V76.1H987.009V89H998.409V95H980.409V53ZM1010.9 95.6C1007.7 95.6 1005.28 94.7 1003.64 92.9C1002 91.06 1001.18 88.44 1001.18 85.04V82.64H1007.42V85.52C1007.42 88.24 1008.56 89.6 1010.84 89.6C1011.96 89.6 1012.8 89.28 1013.36 88.64C1013.96 87.96 1014.26 86.88 1014.26 85.4C1014.26 83.64 1013.86 82.1 1013.06 80.78C1012.26 79.42 1010.78 77.8 1008.62 75.92C1005.9 73.52 1004 71.36 1002.92 69.44C1001.84 67.48 1001.3 65.28 1001.3 62.84C1001.3 59.52 1002.14 56.96 1003.82 55.16C1005.5 53.32 1007.94 52.4 1011.14 52.4C1014.3 52.4 1016.68 53.32 1018.28 55.16C1019.92 56.96 1020.74 59.56 1020.74 62.96V64.7H1014.5V62.54C1014.5 61.1 1014.22 60.06 1013.66 59.42C1013.1 58.74 1012.28 58.4 1011.2 58.4C1009 58.4 1007.9 59.74 1007.9 62.42C1007.9 63.94 1008.3 65.36 1009.1 66.68C1009.94 68 1011.44 69.6 1013.6 71.48C1016.36 73.88 1018.26 76.06 1019.3 78.02C1020.34 79.98 1020.86 82.28 1020.86 84.92C1020.86 88.36 1020 91 1018.28 92.84C1016.6 94.68 1014.14 95.6 1010.9 95.6ZM1033.23 95.6C1030.03 95.6 1027.61 94.7 1025.97 92.9C1024.33 91.06 1023.51 88.44 1023.51 85.04V82.64H1029.75V85.52C1029.75 88.24 1030.89 89.6 1033.17 89.6C1034.29 89.6 1035.13 89.28 1035.69 88.64C1036.29 87.96 1036.59 86.88 1036.59 85.4C1036.59 83.64 1036.19 82.1 1035.39 80.78C1034.59 79.42 1033.11 77.8 1030.95 75.92C1028.23 73.52 1026.33 71.36 1025.25 69.44C1024.17 67.48 1023.63 65.28 1023.63 62.84C1023.63 59.52 1024.47 56.96 1026.15 55.16C1027.83 53.32 1030.27 52.4 1033.47 52.4C1036.63 52.4 1039.01 53.32 1040.61 55.16C1042.25 56.96 1043.07 59.56 1043.07 62.96V64.7H1036.83V62.54C1036.83 61.1 1036.55 60.06 1035.99 59.42C1035.43 58.74 1034.61 58.4 1033.53 58.4C1031.33 58.4 1030.23 59.74 1030.23 62.42C1030.23 63.94 1030.63 65.36 1031.43 66.68C1032.27 68 1033.77 69.6 1035.93 71.48C1038.69 73.88 1040.59 76.06 1041.63 78.02C1042.67 79.98 1043.19 82.28 1043.19 84.92C1043.19 88.36 1042.33 91 1040.61 92.84C1038.93 94.68 1036.47 95.6 1033.23 95.6ZM1046.97 53H1053.57V95H1046.97V53ZM1068.05 95.6C1064.81 95.6 1062.33 94.68 1060.61 92.84C1058.89 91 1058.03 88.4 1058.03 85.04V62.96C1058.03 59.6 1058.89 57 1060.61 55.16C1062.33 53.32 1064.81 52.4 1068.05 52.4C1071.29 52.4 1073.77 53.32 1075.49 55.16C1077.21 57 1078.07 59.6 1078.07 62.96V85.04C1078.07 88.4 1077.21 91 1075.49 92.84C1073.77 94.68 1071.29 95.6 1068.05 95.6ZM1068.05 89.6C1070.33 89.6 1071.47 88.22 1071.47 85.46V62.54C1071.47 59.78 1070.33 58.4 1068.05 58.4C1065.77 58.4 1064.63 59.78 1064.63 62.54V85.46C1064.63 88.22 1065.77 89.6 1068.05 89.6ZM1082.54 53H1090.82L1097.24 78.14H1097.36V53H1103.24V95H1096.46L1088.54 64.34H1088.42V95H1082.54V53Z" fill="white"/>
<path d="M854.46 562.64H860.82V569H854.46V562.64ZM865.769 527H875.489C878.769 527 881.229 527.88 882.869 529.64C884.509 531.4 885.329 533.98 885.329 537.38V541.52C885.329 544.92 884.509 547.5 882.869 549.26C881.229 551.02 878.769 551.9 875.489 551.9H872.369V569H865.769V527ZM875.489 545.9C876.569 545.9 877.369 545.6 877.889 545C878.449 544.4 878.729 543.38 878.729 541.94V536.96C878.729 535.52 878.449 534.5 877.889 533.9C877.369 533.3 876.569 533 875.489 533H872.369V545.9H875.489ZM888.913 527H898.693C902.093 527 904.573 527.8 906.133 529.4C907.693 530.96 908.473 533.38 908.473 536.66V539.24C908.473 543.6 907.033 546.36 904.153 547.52V547.64C905.753 548.12 906.873 549.1 907.513 550.58C908.193 552.06 908.533 554.04 908.533 556.52V563.9C908.533 565.1 908.573 566.08 908.653 566.84C908.733 567.56 908.933 568.28 909.253 569H902.533C902.293 568.32 902.133 567.68 902.053 567.08C901.973 566.48 901.933 565.4 901.933 563.84V556.16C901.933 554.24 901.613 552.9 900.973 552.14C900.373 551.38 899.313 551 897.793 551H895.513V569H888.913V527ZM897.913 545C899.233 545 900.213 544.66 900.853 543.98C901.533 543.3 901.873 542.16 901.873 540.56V537.32C901.873 535.8 901.593 534.7 901.033 534.02C900.513 533.34 899.673 533 898.513 533H895.513V545H897.913ZM922.652 569.6C919.412 569.6 916.932 568.68 915.212 566.84C913.492 565 912.632 562.4 912.632 559.04V536.96C912.632 533.6 913.492 531 915.212 529.16C916.932 527.32 919.412 526.4 922.652 526.4C925.892 526.4 928.372 527.32 930.092 529.16C931.812 531 932.672 533.6 932.672 536.96V559.04C932.672 562.4 931.812 565 930.092 566.84C928.372 568.68 925.892 569.6 922.652 569.6ZM922.652 563.6C924.932 563.6 926.072 562.22 926.072 559.46V536.54C926.072 533.78 924.932 532.4 922.652 532.4C920.372 532.4 919.232 533.78 919.232 536.54V559.46C919.232 562.22 920.372 563.6 922.652 563.6ZM937.136 527H954.596V533H943.736V544.7H952.256V550.7H943.736V569H937.136V527ZM957.761 527H964.361V569H957.761V527ZM969.304 527H975.904V563H986.764V569H969.304V527ZM989.929 527H1007.93V533H996.529V544.1H1005.59V550.1H996.529V563H1007.93V569H989.929V527Z" fill="white"/>
<path d="M315.104 447.68C312.203 447.68 309.216 446.912 306.144 445.376C303.243 444.011 300.853 441.707 298.976 438.464C296.928 435.221 295.904 431.125 295.904 426.176C295.904 420.544 297.269 414.229 300 407.232C302.731 400.235 306.4 393.323 311.008 386.496C315.616 379.499 320.907 373.099 326.88 367.296C332.853 361.323 339.083 356.629 345.568 353.216C352.053 349.632 358.453 347.84 364.768 347.84C368.352 347.84 371.083 348.523 372.96 349.888C375.008 351.083 376.032 353.045 376.032 355.776C376.032 356.459 375.947 357.056 375.776 357.568C375.776 358.08 375.691 358.677 375.52 359.36C374.667 357.995 373.387 357.056 371.68 356.544C370.144 355.861 368.181 355.52 365.792 355.52C360.331 355.52 354.955 357.227 349.664 360.64C344.544 363.883 339.765 368.235 335.328 373.696C331.061 378.987 327.307 384.704 324.064 390.848C320.821 396.992 318.261 402.965 316.384 408.768C314.677 414.4 313.824 419.179 313.824 423.104C313.824 426.859 314.677 429.845 316.384 432.064C318.091 434.283 320.309 435.392 323.04 435.392C327.648 435.392 333.195 432.491 339.68 426.688C346.336 420.885 353.077 412.693 359.904 402.112C366.731 391.531 372.875 379.157 378.336 364.992C382.091 355.093 385.931 345.024 389.856 334.784C393.952 324.544 398.048 314.731 402.144 305.344C406.24 295.787 410.165 287.339 413.92 280C417.845 272.491 421.515 266.603 424.928 262.336C428.512 257.899 431.669 255.68 434.4 255.68C435.765 255.68 436.96 256.277 437.984 257.472C439.008 258.496 439.52 259.861 439.52 261.568C439.52 264.299 438.069 268.992 435.168 275.648C432.437 282.133 428.768 289.984 424.16 299.2C419.723 308.245 415.029 318.144 410.08 328.896C405.131 339.648 400.352 350.571 395.744 361.664C391.307 372.757 387.637 383.509 384.736 393.92C382.005 404.16 380.64 413.547 380.64 422.08C380.64 426.859 380.896 430.443 381.408 432.832C381.92 435.221 383.627 436.416 386.528 436.416C390.112 436.416 394.293 434.88 399.072 431.808C403.851 428.736 408.629 424.384 413.408 418.752C418.187 413.12 422.368 406.379 425.952 398.528L429.024 400.832C425.781 409.536 421.344 417.387 415.712 424.384C410.08 431.211 404.021 436.587 397.536 440.512C391.221 444.608 385.163 446.656 379.36 446.656C373.045 446.656 368.608 444.523 366.048 440.256C363.659 436.16 362.464 431.893 362.464 427.456C362.464 424.555 362.891 420.715 363.744 415.936C364.597 411.157 365.792 405.867 367.328 400.064C361.867 409.109 356.064 417.301 349.92 424.64C343.776 431.808 337.717 437.44 331.744 441.536C325.941 445.632 320.395 447.68 315.104 447.68ZM439.944 448.192C432.605 448.192 427.4 445.888 424.328 441.28C421.256 436.843 419.72 431.381 419.72 424.896C419.72 419.605 420.573 414.144 422.28 408.512C423.987 402.88 426.205 397.589 428.936 392.64C431.837 387.691 434.995 383.68 438.408 380.608C441.992 377.536 445.576 376 449.16 376C450.013 376 450.867 376.171 451.72 376.512C452.744 376.683 453.683 376.939 454.536 377.28C453 378.645 451.123 381.205 448.904 384.96C446.856 388.544 444.893 392.725 443.016 397.504C441.139 402.112 439.517 406.72 438.152 411.328C436.957 415.936 436.36 419.861 436.36 423.104C436.36 428.224 437.213 431.979 438.92 434.368C440.627 436.587 442.845 437.696 445.576 437.696C449.16 437.696 453.427 435.819 458.376 432.064C463.325 428.139 468.189 423.189 472.968 417.216C468.189 413.291 464.435 408.171 461.704 401.856C459.144 395.371 457.864 388.8 457.864 382.144C457.864 376.512 458.803 371.221 460.68 366.272C462.728 361.323 465.629 357.397 469.384 354.496C473.139 351.424 477.661 349.888 482.952 349.888C489.949 349.888 494.643 351.765 497.032 355.52C499.421 359.275 500.616 363.968 500.616 369.6C500.616 376.256 498.995 383.68 495.752 391.872C492.509 399.893 488.413 407.659 483.464 415.168C486.536 416.875 489.779 417.728 493.192 417.728C495.923 417.728 498.995 417.216 502.408 416.192C505.821 414.997 509.149 413.035 512.392 410.304C515.805 407.573 518.536 403.904 520.584 399.296L523.656 401.856C520.243 409.877 515.379 415.595 509.064 419.008C502.92 422.251 497.032 423.872 491.4 423.872C489.181 423.872 487.048 423.701 485 423.36C482.952 422.848 480.989 422.165 479.112 421.312C473.309 428.992 466.909 435.392 459.912 440.512C453.085 445.632 446.429 448.192 439.944 448.192ZM477.576 410.56C481.843 404.245 485.341 397.675 488.072 390.848C490.973 383.851 492.424 377.28 492.424 371.136C492.424 366.187 491.656 362.603 490.12 360.384C488.755 357.995 486.963 356.8 484.744 356.8C481.331 356.8 477.832 359.275 474.248 364.224C470.664 369.173 468.872 375.403 468.872 382.912C468.872 387.861 469.555 392.896 470.92 398.016C472.456 402.965 474.675 407.147 477.576 410.56ZM538.82 451.776C531.481 451.776 525.849 449.643 521.924 445.376C517.999 441.109 516.036 434.795 516.036 426.432C516.036 418.923 517.401 409.707 520.132 398.784C523.033 387.691 526.617 376.341 530.884 364.736C529.177 364.395 527.556 364.139 526.02 363.968C524.484 363.627 523.033 363.2 521.668 362.688V358.08C523.033 358.251 524.655 358.421 526.532 358.592C528.409 358.763 530.543 358.933 532.932 359.104C536.516 349.888 540.356 341.013 544.452 332.48C548.548 323.776 552.559 316.096 556.484 309.44C560.58 302.613 564.42 297.237 568.004 293.312C571.759 289.216 574.916 287.168 577.476 287.168C578.841 287.168 580.036 287.68 581.06 288.704C582.255 289.557 582.852 290.923 582.852 292.8C582.852 295.701 581.06 300.48 577.476 307.136C573.892 313.621 569.455 321.387 564.164 330.432C558.873 339.477 553.753 349.291 548.804 359.872C550.34 359.872 551.876 359.872 553.412 359.872C555.119 359.872 556.74 359.872 558.276 359.872C563.908 359.872 569.796 359.787 575.94 359.616C582.255 359.445 588.569 359.019 594.884 358.336V362.944C585.497 363.968 577.049 364.736 569.54 365.248C562.201 365.76 555.631 366.016 549.828 366.016C549.145 366.016 548.463 366.016 547.78 366.016C547.268 366.016 546.671 366.016 545.988 366.016C542.063 375.061 538.735 384.363 536.004 393.92C533.273 403.477 531.908 412.779 531.908 421.824C531.908 429.163 533.017 434.453 535.236 437.696C537.455 440.768 541.124 442.304 546.244 442.304C555.119 442.304 563.823 438.379 572.356 430.528C580.889 422.677 588.399 412.011 594.884 398.528L598.212 401.088C594.116 410.645 588.911 419.264 582.596 426.944C576.452 434.624 569.625 440.683 562.116 445.12C554.607 449.557 546.841 451.776 538.82 451.776ZM588.012 511.68C586.305 511.68 584.343 511.083 582.124 509.888C579.905 508.864 578.028 506.731 576.492 503.488C574.785 500.245 573.932 495.467 573.932 489.152C573.932 481.643 575.212 471.829 577.772 459.712C580.332 447.765 583.831 434.539 588.268 420.032C592.705 405.525 597.825 390.677 603.628 375.488C609.431 360.128 615.66 345.365 622.316 331.2C629.143 316.864 636.055 304.064 643.052 292.8C650.22 281.365 657.217 272.32 664.044 265.664C670.871 259.008 677.356 255.68 683.5 255.68C687.084 255.68 689.388 256.789 690.412 259.008C691.607 261.227 692.204 263.787 692.204 266.688C692.204 274.027 690.156 282.048 686.06 290.752C682.135 299.456 676.844 308.245 670.188 317.12C663.703 325.995 656.364 334.357 648.172 342.208C640.151 350.059 632.044 356.885 623.852 362.688C623.169 364.395 622.401 366.272 621.548 368.32C620.865 370.197 620.183 372.075 619.5 373.952C622.231 374.976 624.193 377.109 625.388 380.352C627.777 388.203 631.02 393.835 635.116 397.248C639.212 400.491 643.649 402.112 648.428 402.112C653.889 402.112 659.436 400.491 665.068 397.248C670.871 393.835 675.991 389.909 680.428 385.472C682.817 379.84 685.463 374.549 688.364 369.6C691.265 364.651 694.337 360.725 697.58 357.824C700.823 354.752 703.98 353.216 707.052 353.216C708.588 353.216 709.868 353.728 710.892 354.752C712.087 355.605 712.684 356.971 712.684 358.848C712.684 360.896 711.319 364.224 708.588 368.832C706.028 373.44 702.956 378.731 699.372 384.704C695.788 390.677 692.631 396.992 689.9 403.648C687.34 410.133 686.06 416.363 686.06 422.336C686.06 428.48 687.084 432.576 689.132 434.624C691.18 436.672 694.337 437.696 698.604 437.696C704.407 437.696 710.551 434.795 717.036 428.992C723.692 423.189 730.689 413.035 738.028 398.528L740.332 401.088C735.383 415.765 728.215 427.029 718.828 434.88C709.612 442.731 699.969 446.656 689.9 446.656C683.244 446.656 678.295 444.523 675.052 440.256C671.809 436.16 670.188 431.125 670.188 425.152C670.188 421.739 670.7 417.472 671.724 412.352C672.919 407.061 674.455 401.6 676.332 395.968C671.553 399.893 666.348 403.051 660.716 405.44C655.084 407.659 649.537 408.768 644.076 408.768C641.516 408.768 638.7 408.427 635.628 407.744C632.556 407.061 629.484 406.037 626.412 404.672C626.753 407.403 627.009 410.219 627.18 413.12C627.351 415.851 627.436 418.496 627.436 421.056C627.436 431.808 626.327 442.475 624.108 453.056C621.889 463.808 618.903 473.621 615.148 482.496C611.393 491.371 607.127 498.453 602.348 503.744C597.74 509.035 592.961 511.68 588.012 511.68ZM594.668 499.392C597.057 499.392 599.703 496.832 602.604 491.712C605.676 486.763 608.577 480.277 611.308 472.256C614.039 464.235 616.257 455.616 617.964 446.4C619.841 437.184 620.78 428.48 620.78 420.288C620.78 417.557 620.695 414.4 620.524 410.816C620.353 407.232 619.671 403.733 618.476 400.32C617.452 396.736 615.66 393.92 613.1 391.872C608.492 404.843 604.396 417.557 600.812 430.016C597.399 442.304 594.668 453.397 592.62 463.296C590.743 473.195 589.804 481.131 589.804 487.104C589.804 495.296 591.425 499.392 594.668 499.392ZM627.948 352.192C639.041 341.952 648.599 331.712 656.62 321.472C664.812 311.061 671.127 301.845 675.564 293.824C680.001 285.632 682.22 279.829 682.22 276.416C682.22 274.027 681.025 272.832 678.636 272.832C674.199 272.832 669.164 276.501 663.532 283.84C657.9 291.008 652.012 300.565 645.868 312.512C639.724 324.459 633.751 337.685 627.948 352.192ZM720.62 329.408C717.889 329.408 715.415 328.725 713.196 327.36C711.148 325.995 710.124 323.861 710.124 320.96C710.124 318.571 711.063 316.352 712.94 314.304C714.988 312.256 717.463 310.635 720.364 309.44C723.265 308.245 726.081 307.648 728.812 307.648C731.372 307.648 733.42 308.245 734.956 309.44C736.492 310.635 737.26 312.683 737.26 315.584C737.26 318.827 735.468 321.984 731.884 325.056C728.471 327.957 724.716 329.408 720.62 329.408ZM755.868 447.68C748.529 447.68 743.239 445.12 739.996 440C736.924 435.051 735.388 428.821 735.388 421.312C735.388 413.12 736.924 403.392 739.996 392.128C743.068 380.864 747.079 369.003 752.028 356.544C757.148 344.085 762.695 331.968 768.668 320.192C774.641 308.245 780.615 297.408 786.588 287.68C792.561 277.952 798.023 270.187 802.972 264.384C808.092 258.581 812.103 255.68 815.004 255.68C816.881 255.68 818.417 256.789 819.612 259.008C820.807 261.056 821.745 263.616 822.428 266.688C823.111 269.589 823.452 272.235 823.452 274.624C823.452 279.232 822.257 285.291 819.868 292.8C817.649 300.139 814.407 308.416 810.14 317.632C806.044 326.677 801.095 335.893 795.292 345.28C789.66 354.496 783.431 363.371 776.604 371.904C769.948 380.437 762.865 387.776 755.356 393.92C754.332 398.528 753.479 403.051 752.796 407.488C752.284 411.755 752.028 415.851 752.028 419.776C752.028 426.432 752.967 431.381 754.844 434.624C756.721 437.867 759.537 439.488 763.292 439.488C767.9 439.488 772.423 437.44 776.86 433.344C781.468 429.248 785.735 424.128 789.66 417.984C793.756 411.669 797.255 405.184 800.156 398.528L803.996 400.576C797.169 415.083 789.745 426.603 781.724 435.136C773.703 443.499 765.084 447.68 755.868 447.68ZM757.66 385.216C763.633 379.243 769.436 372.416 775.068 364.736C780.7 356.885 785.905 348.779 790.684 340.416C795.633 332.053 799.985 323.947 803.74 316.096C807.495 308.245 810.396 301.248 812.444 295.104C814.492 288.789 815.516 283.925 815.516 280.512C815.516 278.805 815.26 277.696 814.748 277.184C814.407 276.672 814.065 276.416 813.724 276.416C812.359 276.416 809.969 278.635 806.556 283.072C803.313 287.339 799.473 293.141 795.036 300.48C790.599 307.819 786.076 316.181 781.468 325.568C776.86 334.955 772.423 344.768 768.156 355.008C764.06 365.248 760.561 375.317 757.66 385.216ZM824.048 451.264C813.637 451.264 805.787 448.363 800.496 442.56C795.376 436.928 792.816 429.931 792.816 421.568C792.816 413.888 794.693 405.781 798.448 397.248C802.373 388.715 807.493 380.693 813.808 373.184C820.293 365.675 827.376 359.616 835.056 355.008C842.736 350.229 850.331 347.84 857.84 347.84C861.765 347.84 865.349 348.864 868.592 350.912C872.005 352.96 873.712 357.141 873.712 363.456C873.712 369.941 871.749 376.085 867.824 381.888C864.069 387.52 859.035 392.555 852.72 396.992C846.576 401.429 839.749 405.099 832.24 408C824.901 410.731 817.563 412.437 810.224 413.12C809.883 414.827 809.627 416.448 809.456 417.984C809.285 419.52 809.2 420.971 809.2 422.336C809.2 424.896 809.456 427.456 809.968 430.016C810.651 432.576 811.76 434.965 813.296 437.184C814.832 439.232 816.88 440.853 819.44 442.048C822.171 443.243 825.499 443.84 829.424 443.84C836.763 443.84 844.016 441.792 851.184 437.696C858.352 433.429 865.008 427.883 871.152 421.056C877.296 414.229 882.501 406.72 886.768 398.528L889.84 400.832C885.232 411.072 879.344 419.947 872.176 427.456C865.179 434.965 857.499 440.768 849.136 444.864C840.944 449.131 832.581 451.264 824.048 451.264ZM811.504 408.256C816.112 406.72 821.317 404.501 827.12 401.6C832.923 398.528 838.469 394.944 843.76 390.848C849.221 386.752 853.659 382.229 857.072 377.28C860.656 372.331 862.448 367.125 862.448 361.664C862.448 359.787 862.107 358.336 861.424 357.312C860.741 356.288 859.291 355.776 857.072 355.776C852.976 355.776 848.624 357.397 844.016 360.64C839.408 363.712 834.971 367.808 830.704 372.928C826.437 378.048 822.597 383.68 819.184 389.824C815.771 395.968 813.211 402.112 811.504 408.256ZM909.81 453.056C901.789 453.056 895.389 451.264 890.61 447.68C886.002 444.267 882.759 440 880.882 434.88C878.834 429.76 877.81 424.64 877.81 419.52C877.81 414.4 878.493 410.475 879.858 407.744C881.223 405.013 882.845 402.965 884.722 401.6C886.77 400.235 888.647 399.211 890.354 398.528C892.231 397.845 893.511 397.163 894.194 396.48C899.314 390.848 904.007 384.96 908.274 378.816C912.541 372.672 916.295 366.187 919.538 359.36V356.288C919.538 349.973 920.562 345.536 922.61 342.976C924.829 340.245 927.133 338.88 929.522 338.88C930.887 338.88 931.911 339.221 932.594 339.904C933.277 340.587 933.618 341.355 933.618 342.208C933.618 343.061 933.362 344.427 932.85 346.304C932.338 348.181 932.082 350.571 932.082 353.472C932.082 359.104 933.191 365.248 935.41 371.904C937.629 378.389 939.847 385.301 942.066 392.64C944.285 399.808 945.394 407.317 945.394 415.168C945.394 417.387 945.223 419.605 944.882 421.824C944.711 423.872 944.37 425.835 943.858 427.712C949.831 426.688 955.463 424.043 960.754 419.776C966.045 415.339 971.165 408.341 976.114 398.784L978.418 401.344C975.175 410.731 970.311 417.899 963.826 422.848C957.341 427.627 950.258 430.613 942.578 431.808C939.847 439.147 935.495 444.523 929.522 447.936C923.719 451.349 917.149 453.056 909.81 453.056ZM910.322 444.096C912.37 444.096 915.101 443.413 918.514 442.048C921.927 440.683 924.573 437.184 926.45 431.552C919.282 430.187 912.882 427.371 907.25 423.104C901.789 418.837 897.693 414.571 894.962 410.304C891.207 410.475 889.33 413.461 889.33 419.264C889.33 425.408 891.122 431.125 894.706 436.416C898.461 441.536 903.666 444.096 910.322 444.096ZM927.73 427.456C928.071 425.749 928.327 423.957 928.498 422.08C928.669 420.203 928.754 417.984 928.754 415.424C928.754 407.403 927.73 399.467 925.682 391.616C923.805 383.595 922.183 376.085 920.818 369.088C916.893 375.573 912.711 381.803 908.274 387.776C904.007 393.579 899.911 398.443 895.986 402.368C898.546 407.829 902.471 412.949 907.762 417.728C913.223 422.507 919.879 425.749 927.73 427.456Z" fill="#684141"/>
</svg>
