<svg width="1280" height="720" viewBox="0 0 1280 720" fill="none" xmlns="http://www.w3.org/2000/svg">
<rect width="1280" height="720" fill="#97D3FF"/>
<path d="M365.46 487.64H371.82V494H365.46V487.64ZM376.769 452H394.229V458H383.369V469.7H391.889V475.7H383.369V494H376.769V452ZM397.394 452H415.394V458H403.994V469.1H413.054V475.1H403.994V488H415.394V494H397.394V452ZM419.19 452H425.79V469.1H432.87V452H439.47V494H432.87V475.1H425.79V494H419.19V452ZM444.386 452H454.346C457.746 452 460.226 452.8 461.786 454.4C463.346 455.96 464.126 458.38 464.126 461.66V463.34C464.126 465.5 463.766 467.26 463.046 468.62C462.366 469.98 461.306 470.96 459.866 471.56V471.68C463.146 472.8 464.786 475.72 464.786 480.44V484.04C464.786 487.28 463.926 489.76 462.206 491.48C460.526 493.16 458.046 494 454.766 494H444.386V452ZM453.566 469.1C454.886 469.1 455.866 468.76 456.506 468.08C457.186 467.4 457.526 466.26 457.526 464.66V462.32C457.526 460.8 457.246 459.7 456.686 459.02C456.166 458.34 455.326 458 454.166 458H450.986V469.1H453.566ZM454.766 488C455.926 488 456.786 487.7 457.346 487.1C457.906 486.46 458.186 485.38 458.186 483.86V480.2C458.186 478.28 457.846 476.96 457.166 476.24C456.526 475.48 455.446 475.1 453.926 475.1H450.986V488H454.766ZM478.004 494.6C474.804 494.6 472.364 493.7 470.684 491.9C469.004 490.06 468.164 487.44 468.164 484.04V461.96C468.164 458.56 469.004 455.96 470.684 454.16C472.364 452.32 474.804 451.4 478.004 451.4C481.204 451.4 483.644 452.32 485.324 454.16C487.004 455.96 487.844 458.56 487.844 461.96V465.56H481.604V461.54C481.604 458.78 480.464 457.4 478.184 457.4C475.904 457.4 474.764 458.78 474.764 461.54V484.52C474.764 487.24 475.904 488.6 478.184 488.6C480.464 488.6 481.604 487.24 481.604 484.52V476.3H478.304V470.3H487.844V484.04C487.844 487.44 487.004 490.06 485.324 491.9C483.644 493.7 481.204 494.6 478.004 494.6Z" fill="white"/>
<path d="M472.46 173.64H478.82V180H472.46V173.64ZM492.777 180.6C489.577 180.6 487.137 179.7 485.457 177.9C483.777 176.06 482.937 173.44 482.937 170.04V147.96C482.937 144.56 483.777 141.96 485.457 140.16C487.137 138.32 489.577 137.4 492.777 137.4C495.977 137.4 498.417 138.32 500.097 140.16C501.777 141.96 502.617 144.56 502.617 147.96V151.56H496.377V147.54C496.377 144.78 495.237 143.4 492.957 143.4C490.677 143.4 489.537 144.78 489.537 147.54V170.52C489.537 173.24 490.677 174.6 492.957 174.6C495.237 174.6 496.377 173.24 496.377 170.52V162.3H493.077V156.3H502.617V170.04C502.617 173.44 501.777 176.06 500.097 177.9C498.417 179.7 495.977 180.6 492.777 180.6ZM506.855 138H513.455V180H506.855V138ZM523.558 144H516.658V138H537.058V144H530.158V180H523.558V144ZM549.319 180.6C546.159 180.6 543.739 179.7 542.059 177.9C540.419 176.1 539.599 173.56 539.599 170.28V147.72C539.599 144.44 540.419 141.9 542.059 140.1C543.739 138.3 546.159 137.4 549.319 137.4C552.479 137.4 554.879 138.3 556.519 140.1C558.199 141.9 559.039 144.44 559.039 147.72V152.16H552.799V147.3C552.799 144.7 551.699 143.4 549.499 143.4C547.299 143.4 546.199 144.7 546.199 147.3V170.76C546.199 173.32 547.299 174.6 549.499 174.6C551.699 174.6 552.799 173.32 552.799 170.76V164.34H559.039V170.28C559.039 173.56 558.199 176.1 556.519 177.9C554.879 179.7 552.479 180.6 549.319 180.6ZM572.645 180.6C569.405 180.6 566.925 179.68 565.205 177.84C563.485 176 562.625 173.4 562.625 170.04V147.96C562.625 144.6 563.485 142 565.205 140.16C566.925 138.32 569.405 137.4 572.645 137.4C575.885 137.4 578.365 138.32 580.085 140.16C581.805 142 582.665 144.6 582.665 147.96V170.04C582.665 173.4 581.805 176 580.085 177.84C578.365 179.68 575.885 180.6 572.645 180.6ZM572.645 174.6C574.925 174.6 576.065 173.22 576.065 170.46V147.54C576.065 144.78 574.925 143.4 572.645 143.4C570.365 143.4 569.225 144.78 569.225 147.54V170.46C569.225 173.22 570.365 174.6 572.645 174.6ZM587.128 138H595.408L601.828 163.14H601.948V138H607.828V180H601.048L593.128 149.34H593.008V180H587.128V138ZM612.733 138H630.193V144H619.333V155.7H627.853V161.7H619.333V180H612.733V138ZM633.358 138H639.958V180H633.358V138ZM654.261 180.6C651.061 180.6 648.621 179.7 646.941 177.9C645.261 176.06 644.421 173.44 644.421 170.04V147.96C644.421 144.56 645.261 141.96 646.941 140.16C648.621 138.32 651.061 137.4 654.261 137.4C657.461 137.4 659.901 138.32 661.581 140.16C663.261 141.96 664.101 144.56 664.101 147.96V151.56H657.861V147.54C657.861 144.78 656.721 143.4 654.441 143.4C652.161 143.4 651.021 144.78 651.021 147.54V170.52C651.021 173.24 652.161 174.6 654.441 174.6C656.721 174.6 657.861 173.24 657.861 170.52V162.3H654.561V156.3H664.101V170.04C664.101 173.44 663.261 176.06 661.581 177.9C659.901 179.7 657.461 180.6 654.261 180.6Z" fill="white"/>
<path d="M166.46 580.64H172.82V587H166.46V580.64ZM177.035 581.12L189.275 551H177.635V545H196.355V550.88L184.115 581H196.355V587H177.035V581.12ZM208.673 587.6C205.473 587.6 203.053 586.7 201.413 584.9C199.773 583.06 198.953 580.44 198.953 577.04V574.64H205.193V577.52C205.193 580.24 206.333 581.6 208.613 581.6C209.733 581.6 210.573 581.28 211.133 580.64C211.733 579.96 212.033 578.88 212.033 577.4C212.033 575.64 211.633 574.1 210.833 572.78C210.033 571.42 208.553 569.8 206.393 567.92C203.673 565.52 201.773 563.36 200.693 561.44C199.613 559.48 199.073 557.28 199.073 554.84C199.073 551.52 199.913 548.96 201.593 547.16C203.273 545.32 205.713 544.4 208.913 544.4C212.073 544.4 214.453 545.32 216.053 547.16C217.693 548.96 218.513 551.56 218.513 554.96V556.7H212.273V554.54C212.273 553.1 211.993 552.06 211.433 551.42C210.873 550.74 210.053 550.4 208.973 550.4C206.773 550.4 205.673 551.74 205.673 554.42C205.673 555.94 206.073 557.36 206.873 558.68C207.713 560 209.213 561.6 211.373 563.48C214.133 565.88 216.033 568.06 217.073 570.02C218.113 571.98 218.633 574.28 218.633 576.92C218.633 580.36 217.773 583 216.053 584.84C214.373 586.68 211.913 587.6 208.673 587.6ZM222.417 545H229.017V562.1H236.097V545H242.697V587H236.097V568.1H229.017V587H222.417V545ZM247.612 545H265.612V551H254.212V562.1H263.272V568.1H254.212V581H265.612V587H247.612V545ZM269.409 545H277.689L284.109 570.14H284.229V545H290.109V587H283.329L275.409 556.34H275.289V587H269.409V545ZM293.275 545H299.935L304.255 577.58H304.375L308.695 545H314.755L308.395 587H299.635L293.275 545Z" fill="white"/>
<path d="M824.46 334.64H830.82V341H824.46V334.64ZM830.865 299H837.525L841.845 331.58H841.965L846.285 299H852.345L845.985 341H837.225L830.865 299ZM855.515 299H862.115V341H855.515V299ZM867.058 299H876.478L880.678 329.06H880.798L884.998 299H894.418V341H888.178V309.2H888.058L883.258 341H877.738L872.938 309.2H872.818V341H867.058V299ZM899.343 299H905.943V341H899.343V299ZM910.886 299H919.166L925.586 324.14H925.706V299H931.586V341H924.806L916.886 310.34H916.766V341H910.886V299ZM936.491 299H953.951V305H943.091V316.7H951.611V322.7H943.091V341H936.491V299ZM966.656 341.6C963.416 341.6 960.936 340.68 959.216 338.84C957.496 337 956.636 334.4 956.636 331.04V308.96C956.636 305.6 957.496 303 959.216 301.16C960.936 299.32 963.416 298.4 966.656 298.4C969.896 298.4 972.376 299.32 974.096 301.16C975.816 303 976.676 305.6 976.676 308.96V331.04C976.676 334.4 975.816 337 974.096 338.84C972.376 340.68 969.896 341.6 966.656 341.6ZM966.656 335.6C968.936 335.6 970.076 334.22 970.076 331.46V308.54C970.076 305.78 968.936 304.4 966.656 304.4C964.376 304.4 963.236 305.78 963.236 308.54V331.46C963.236 334.22 964.376 335.6 966.656 335.6Z" fill="white"/>
<path d="M224.302 300.977H230.662V307.337H224.302V300.977ZM244.559 307.937C241.399 307.937 238.979 307.037 237.299 305.237C235.659 303.437 234.839 300.897 234.839 297.617V275.057C234.839 271.777 235.659 269.237 237.299 267.437C238.979 265.637 241.399 264.737 244.559 264.737C247.719 264.737 250.119 265.637 251.759 267.437C253.439 269.237 254.279 271.777 254.279 275.057V279.497H248.039V274.637C248.039 272.037 246.939 270.737 244.739 270.737C242.539 270.737 241.439 272.037 241.439 274.637V298.097C241.439 300.657 242.539 301.937 244.739 301.937C246.939 301.937 248.039 300.657 248.039 298.097V291.677H254.279V297.617C254.279 300.897 253.439 303.437 251.759 305.237C250.119 307.037 247.719 307.937 244.559 307.937ZM267.885 307.937C264.645 307.937 262.165 307.017 260.445 305.177C258.725 303.337 257.865 300.737 257.865 297.377V275.297C257.865 271.937 258.725 269.337 260.445 267.497C262.165 265.657 264.645 264.737 267.885 264.737C271.125 264.737 273.605 265.657 275.325 267.497C277.045 269.337 277.905 271.937 277.905 275.297V297.377C277.905 300.737 277.045 303.337 275.325 305.177C273.605 307.017 271.125 307.937 267.885 307.937ZM267.885 301.937C270.165 301.937 271.305 300.557 271.305 297.797V274.877C271.305 272.117 270.165 270.737 267.885 270.737C265.605 270.737 264.465 272.117 264.465 274.877V297.797C264.465 300.557 265.605 301.937 267.885 301.937ZM282.369 265.337H290.649L297.069 290.477H297.189V265.337H303.069V307.337H296.289L288.369 276.677H288.249V307.337H282.369V265.337ZM307.974 265.337H325.434V271.337H314.574V283.037H323.094V289.037H314.574V307.337H307.974V265.337ZM328.599 265.337H335.199V307.337H328.599V265.337ZM349.502 307.937C346.302 307.937 343.862 307.037 342.182 305.237C340.502 303.397 339.662 300.777 339.662 297.377V275.297C339.662 271.897 340.502 269.297 342.182 267.497C343.862 265.657 346.302 264.737 349.502 264.737C352.702 264.737 355.142 265.657 356.822 267.497C358.502 269.297 359.342 271.897 359.342 275.297V278.897H353.102V274.877C353.102 272.117 351.962 270.737 349.682 270.737C347.402 270.737 346.262 272.117 346.262 274.877V297.857C346.262 300.577 347.402 301.937 349.682 301.937C351.962 301.937 353.102 300.577 353.102 297.857V289.637H349.802V283.637H359.342V297.377C359.342 300.777 358.502 303.397 356.822 305.237C355.142 307.037 352.702 307.937 349.502 307.937Z" fill="white"/>
<path d="M921.46 227.64H927.82V234H921.46V227.64ZM932.769 192H942.729C946.129 192 948.609 192.8 950.169 194.4C951.729 195.96 952.509 198.38 952.509 201.66V203.34C952.509 205.5 952.149 207.26 951.429 208.62C950.749 209.98 949.689 210.96 948.249 211.56V211.68C951.529 212.8 953.169 215.72 953.169 220.44V224.04C953.169 227.28 952.309 229.76 950.589 231.48C948.909 233.16 946.429 234 943.149 234H932.769V192ZM941.949 209.1C943.269 209.1 944.249 208.76 944.889 208.08C945.569 207.4 945.909 206.26 945.909 204.66V202.32C945.909 200.8 945.629 199.7 945.069 199.02C944.549 198.34 943.709 198 942.549 198H939.369V209.1H941.949ZM943.149 228C944.309 228 945.169 227.7 945.729 227.1C946.289 226.46 946.569 225.38 946.569 223.86V220.2C946.569 218.28 946.229 216.96 945.549 216.24C944.909 215.48 943.829 215.1 942.309 215.1H939.369V228H943.149ZM962.126 192H971.066L977.906 234H971.306L970.106 225.66V225.78H962.606L961.406 234H955.286L962.126 192ZM969.326 220.08L966.386 199.32H966.266L963.386 220.08H969.326ZM989.513 234.6C986.313 234.6 983.893 233.7 982.253 231.9C980.613 230.06 979.793 227.44 979.793 224.04V221.64H986.033V224.52C986.033 227.24 987.173 228.6 989.453 228.6C990.573 228.6 991.413 228.28 991.973 227.64C992.573 226.96 992.873 225.88 992.873 224.4C992.873 222.64 992.473 221.1 991.673 219.78C990.873 218.42 989.393 216.8 987.233 214.92C984.513 212.52 982.613 210.36 981.533 208.44C980.453 206.48 979.913 204.28 979.913 201.84C979.913 198.52 980.753 195.96 982.433 194.16C984.113 192.32 986.553 191.4 989.753 191.4C992.913 191.4 995.293 192.32 996.893 194.16C998.533 195.96 999.353 198.56 999.353 201.96V203.7H993.113V201.54C993.113 200.1 992.833 199.06 992.273 198.42C991.713 197.74 990.893 197.4 989.813 197.4C987.613 197.4 986.513 198.74 986.513 201.42C986.513 202.94 986.913 204.36 987.713 205.68C988.553 207 990.053 208.6 992.213 210.48C994.973 212.88 996.873 215.06 997.913 217.02C998.953 218.98 999.473 221.28 999.473 223.92C999.473 227.36 998.613 230 996.893 231.84C995.213 233.68 992.753 234.6 989.513 234.6ZM1003.26 192H1009.86V209.1H1016.94V192H1023.54V234H1016.94V215.1H1009.86V234H1003.26V192ZM1028.45 192H1038.23C1041.63 192 1044.11 192.8 1045.67 194.4C1047.23 195.96 1048.01 198.38 1048.01 201.66V204.24C1048.01 208.6 1046.57 211.36 1043.69 212.52V212.64C1045.29 213.12 1046.41 214.1 1047.05 215.58C1047.73 217.06 1048.07 219.04 1048.07 221.52V228.9C1048.07 230.1 1048.11 231.08 1048.19 231.84C1048.27 232.56 1048.47 233.28 1048.79 234H1042.07C1041.83 233.32 1041.67 232.68 1041.59 232.08C1041.51 231.48 1041.47 230.4 1041.47 228.84V221.16C1041.47 219.24 1041.15 217.9 1040.51 217.14C1039.91 216.38 1038.85 216 1037.33 216H1035.05V234H1028.45V192ZM1037.45 210C1038.77 210 1039.75 209.66 1040.39 208.98C1041.07 208.3 1041.41 207.16 1041.41 205.56V202.32C1041.41 200.8 1041.13 199.7 1040.57 199.02C1040.05 198.34 1039.21 198 1038.05 198H1035.05V210H1037.45ZM1061.95 234.6C1058.79 234.6 1056.37 233.7 1054.69 231.9C1053.05 230.1 1052.23 227.56 1052.23 224.28V201.72C1052.23 198.44 1053.05 195.9 1054.69 194.1C1056.37 192.3 1058.79 191.4 1061.95 191.4C1065.11 191.4 1067.51 192.3 1069.15 194.1C1070.83 195.9 1071.67 198.44 1071.67 201.72V206.16H1065.43V201.3C1065.43 198.7 1064.33 197.4 1062.13 197.4C1059.93 197.4 1058.83 198.7 1058.83 201.3V224.76C1058.83 227.32 1059.93 228.6 1062.13 228.6C1064.33 228.6 1065.43 227.32 1065.43 224.76V218.34H1071.67V224.28C1071.67 227.56 1070.83 230.1 1069.15 231.9C1067.51 233.7 1065.11 234.6 1061.95 234.6Z" fill="white"/>
<path d="M556.46 616.64H562.82V623H556.46V616.64ZM562.865 581H569.525L573.845 613.58H573.965L578.285 581H584.345L577.985 623H569.225L562.865 581ZM587.515 581H594.115V623H587.515V581ZM599.058 581H608.478L612.678 611.06H612.798L616.998 581H626.418V623H620.178V591.2H620.058L615.258 623H609.738L604.938 591.2H604.818V623H599.058V581ZM631.343 581H641.123C644.523 581 647.003 581.8 648.563 583.4C650.123 584.96 650.903 587.38 650.903 590.66V593.24C650.903 597.6 649.463 600.36 646.583 601.52V601.64C648.183 602.12 649.303 603.1 649.943 604.58C650.623 606.06 650.963 608.04 650.963 610.52V617.9C650.963 619.1 651.003 620.08 651.083 620.84C651.163 621.56 651.363 622.28 651.683 623H644.963C644.723 622.32 644.563 621.68 644.483 621.08C644.403 620.48 644.363 619.4 644.363 617.84V610.16C644.363 608.24 644.043 606.9 643.403 606.14C642.803 605.38 641.743 605 640.223 605H637.943V623H631.343V581ZM640.343 599C641.663 599 642.643 598.66 643.283 597.98C643.963 597.3 644.303 596.16 644.303 594.56V591.32C644.303 589.8 644.023 588.7 643.463 588.02C642.943 587.34 642.103 587 640.943 587H637.943V599H640.343ZM664.842 623.6C661.682 623.6 659.262 622.7 657.582 620.9C655.942 619.1 655.122 616.56 655.122 613.28V590.72C655.122 587.44 655.942 584.9 657.582 583.1C659.262 581.3 661.682 580.4 664.842 580.4C668.002 580.4 670.402 581.3 672.042 583.1C673.722 584.9 674.562 587.44 674.562 590.72V595.16H668.322V590.3C668.322 587.7 667.222 586.4 665.022 586.4C662.822 586.4 661.722 587.7 661.722 590.3V613.76C661.722 616.32 662.822 617.6 665.022 617.6C667.222 617.6 668.322 616.32 668.322 613.76V607.34H674.562V613.28C674.562 616.56 673.722 619.1 672.042 620.9C670.402 622.7 668.002 623.6 664.842 623.6Z" fill="white"/>
<path d="M969.46 599.64H975.82V606H969.46V599.64ZM980.035 600.12L992.275 570H980.635V564H999.355V569.88L987.115 600H999.355V606H980.035V600.12ZM1011.67 606.6C1008.47 606.6 1006.05 605.7 1004.41 603.9C1002.77 602.06 1001.95 599.44 1001.95 596.04V593.64H1008.19V596.52C1008.19 599.24 1009.33 600.6 1011.61 600.6C1012.73 600.6 1013.57 600.28 1014.13 599.64C1014.73 598.96 1015.03 597.88 1015.03 596.4C1015.03 594.64 1014.63 593.1 1013.83 591.78C1013.03 590.42 1011.55 588.8 1009.39 586.92C1006.67 584.52 1004.77 582.36 1003.69 580.44C1002.61 578.48 1002.07 576.28 1002.07 573.84C1002.07 570.52 1002.91 567.96 1004.59 566.16C1006.27 564.32 1008.71 563.4 1011.91 563.4C1015.07 563.4 1017.45 564.32 1019.05 566.16C1020.69 567.96 1021.51 570.56 1021.51 573.96V575.7H1015.27V573.54C1015.27 572.1 1014.99 571.06 1014.43 570.42C1013.87 569.74 1013.05 569.4 1011.97 569.4C1009.77 569.4 1008.67 570.74 1008.67 573.42C1008.67 574.94 1009.07 576.36 1009.87 577.68C1010.71 579 1012.21 580.6 1014.37 582.48C1017.13 584.88 1019.03 587.06 1020.07 589.02C1021.11 590.98 1021.63 593.28 1021.63 595.92C1021.63 599.36 1020.77 602 1019.05 603.84C1017.37 605.68 1014.91 606.6 1011.67 606.6ZM1025.42 564H1032.02V581.1H1039.1V564H1045.7V606H1039.1V587.1H1032.02V606H1025.42V564ZM1050.61 564H1060.39C1063.79 564 1066.27 564.8 1067.83 566.4C1069.39 567.96 1070.17 570.38 1070.17 573.66V576.24C1070.17 580.6 1068.73 583.36 1065.85 584.52V584.64C1067.45 585.12 1068.57 586.1 1069.21 587.58C1069.89 589.06 1070.23 591.04 1070.23 593.52V600.9C1070.23 602.1 1070.27 603.08 1070.35 603.84C1070.43 604.56 1070.63 605.28 1070.95 606H1064.23C1063.99 605.32 1063.83 604.68 1063.75 604.08C1063.67 603.48 1063.63 602.4 1063.63 600.84V593.16C1063.63 591.24 1063.31 589.9 1062.67 589.14C1062.07 588.38 1061.01 588 1059.49 588H1057.21V606H1050.61V564ZM1059.61 582C1060.93 582 1061.91 581.66 1062.55 580.98C1063.23 580.3 1063.57 579.16 1063.57 577.56V574.32C1063.57 572.8 1063.29 571.7 1062.73 571.02C1062.21 570.34 1061.37 570 1060.21 570H1057.21V582H1059.61ZM1084.11 606.6C1080.95 606.6 1078.53 605.7 1076.85 603.9C1075.21 602.1 1074.39 599.56 1074.39 596.28V573.72C1074.39 570.44 1075.21 567.9 1076.85 566.1C1078.53 564.3 1080.95 563.4 1084.11 563.4C1087.27 563.4 1089.67 564.3 1091.31 566.1C1092.99 567.9 1093.83 570.44 1093.83 573.72V578.16H1087.59V573.3C1087.59 570.7 1086.49 569.4 1084.29 569.4C1082.09 569.4 1080.99 570.7 1080.99 573.3V596.76C1080.99 599.32 1082.09 600.6 1084.29 600.6C1086.49 600.6 1087.59 599.32 1087.59 596.76V590.34H1093.83V596.28C1093.83 599.56 1092.99 602.1 1091.31 603.9C1089.67 605.7 1087.27 606.6 1084.11 606.6Z" fill="white"/>
<path d="M139.46 145.64H145.82V152H139.46V145.64ZM156.882 130.52L149.622 110H156.582L161.022 123.56H161.142L165.702 110H171.942L164.682 130.52L172.302 152H165.342L160.542 137.36H160.422L155.502 152H149.262L156.882 130.52ZM175.437 110H182.037V152H175.437V110ZM186.98 110H195.26L201.68 135.14H201.8V110H207.68V152H200.9L192.98 121.34H192.86V152H186.98V110ZM212.585 110H219.185V152H212.585V110ZM229.288 116H222.388V110H242.788V116H235.888V152H229.288V116ZM245.983 110H255.763C259.163 110 261.643 110.8 263.203 112.4C264.763 113.96 265.543 116.38 265.543 119.66V122.24C265.543 126.6 264.103 129.36 261.223 130.52V130.64C262.823 131.12 263.943 132.1 264.583 133.58C265.263 135.06 265.603 137.04 265.603 139.52V146.9C265.603 148.1 265.643 149.08 265.723 149.84C265.803 150.56 266.003 151.28 266.323 152H259.603C259.363 151.32 259.203 150.68 259.123 150.08C259.043 149.48 259.003 148.4 259.003 146.84V139.16C259.003 137.24 258.683 135.9 258.043 135.14C257.443 134.38 256.383 134 254.863 134H252.583V152H245.983V110ZM254.983 128C256.303 128 257.283 127.66 257.923 126.98C258.603 126.3 258.943 125.16 258.943 123.56V120.32C258.943 118.8 258.663 117.7 258.103 117.02C257.583 116.34 256.743 116 255.583 116H252.583V128H254.983ZM279.483 152.6C276.323 152.6 273.903 151.7 272.223 149.9C270.583 148.1 269.763 145.56 269.763 142.28V119.72C269.763 116.44 270.583 113.9 272.223 112.1C273.903 110.3 276.323 109.4 279.483 109.4C282.643 109.4 285.043 110.3 286.683 112.1C288.363 113.9 289.203 116.44 289.203 119.72V124.16H282.963V119.3C282.963 116.7 281.863 115.4 279.663 115.4C277.463 115.4 276.363 116.7 276.363 119.3V142.76C276.363 145.32 277.463 146.6 279.663 146.6C281.863 146.6 282.963 145.32 282.963 142.76V136.34H289.203V142.28C289.203 145.56 288.363 148.1 286.683 149.9C285.043 151.7 282.643 152.6 279.483 152.6Z" fill="white"/>
<path d="M764.46 136.64H770.82V143H764.46V136.64ZM781.882 121.52L774.622 101H781.582L786.022 114.56H786.142L790.702 101H796.942L789.682 121.52L797.302 143H790.342L785.542 128.36H785.422L780.502 143H774.262L781.882 121.52ZM808.665 143.6C805.465 143.6 803.045 142.7 801.405 140.9C799.765 139.06 798.945 136.44 798.945 133.04V130.64H805.185V133.52C805.185 136.24 806.325 137.6 808.605 137.6C809.725 137.6 810.565 137.28 811.125 136.64C811.725 135.96 812.025 134.88 812.025 133.4C812.025 131.64 811.625 130.1 810.825 128.78C810.025 127.42 808.545 125.8 806.385 123.92C803.665 121.52 801.765 119.36 800.685 117.44C799.605 115.48 799.065 113.28 799.065 110.84C799.065 107.52 799.905 104.96 801.585 103.16C803.265 101.32 805.705 100.4 808.905 100.4C812.065 100.4 814.445 101.32 816.045 103.16C817.685 104.96 818.505 107.56 818.505 110.96V112.7H812.265V110.54C812.265 109.1 811.985 108.06 811.425 107.42C810.865 106.74 810.045 106.4 808.965 106.4C806.765 106.4 805.665 107.74 805.665 110.42C805.665 111.94 806.065 113.36 806.865 114.68C807.705 116 809.205 117.6 811.365 119.48C814.125 121.88 816.025 124.06 817.065 126.02C818.105 127.98 818.625 130.28 818.625 132.92C818.625 136.36 817.765 139 816.045 140.84C814.365 142.68 811.905 143.6 808.665 143.6ZM822.409 101H840.409V107H829.009V118.1H838.069V124.1H829.009V137H840.409V143H822.409V101ZM852.903 143.6C849.703 143.6 847.283 142.7 845.643 140.9C844.003 139.06 843.183 136.44 843.183 133.04V130.64H849.423V133.52C849.423 136.24 850.563 137.6 852.843 137.6C853.963 137.6 854.803 137.28 855.363 136.64C855.963 135.96 856.263 134.88 856.263 133.4C856.263 131.64 855.863 130.1 855.063 128.78C854.263 127.42 852.783 125.8 850.623 123.92C847.903 121.52 846.003 119.36 844.923 117.44C843.843 115.48 843.303 113.28 843.303 110.84C843.303 107.52 844.143 104.96 845.823 103.16C847.503 101.32 849.943 100.4 853.143 100.4C856.303 100.4 858.683 101.32 860.283 103.16C861.923 104.96 862.743 107.56 862.743 110.96V112.7H856.503V110.54C856.503 109.1 856.223 108.06 855.663 107.42C855.103 106.74 854.283 106.4 853.203 106.4C851.003 106.4 849.903 107.74 849.903 110.42C849.903 111.94 850.303 113.36 851.103 114.68C851.943 116 853.443 117.6 855.603 119.48C858.363 121.88 860.263 124.06 861.303 126.02C862.343 127.98 862.863 130.28 862.863 132.92C862.863 136.36 862.003 139 860.283 140.84C858.603 142.68 856.143 143.6 852.903 143.6ZM875.228 143.6C872.028 143.6 869.608 142.7 867.968 140.9C866.328 139.06 865.508 136.44 865.508 133.04V130.64H871.748V133.52C871.748 136.24 872.888 137.6 875.168 137.6C876.288 137.6 877.128 137.28 877.688 136.64C878.288 135.96 878.588 134.88 878.588 133.4C878.588 131.64 878.188 130.1 877.388 128.78C876.588 127.42 875.108 125.8 872.948 123.92C870.228 121.52 868.328 119.36 867.248 117.44C866.168 115.48 865.628 113.28 865.628 110.84C865.628 107.52 866.468 104.96 868.147 103.16C869.828 101.32 872.268 100.4 875.468 100.4C878.628 100.4 881.008 101.32 882.608 103.16C884.248 104.96 885.068 107.56 885.068 110.96V112.7H878.828V110.54C878.828 109.1 878.548 108.06 877.988 107.42C877.428 106.74 876.608 106.4 875.528 106.4C873.328 106.4 872.228 107.74 872.228 110.42C872.228 111.94 872.628 113.36 873.428 114.68C874.268 116 875.768 117.6 877.928 119.48C880.688 121.88 882.588 124.06 883.628 126.02C884.668 127.98 885.188 130.28 885.188 132.92C885.188 136.36 884.328 139 882.608 140.84C880.928 142.68 878.468 143.6 875.228 143.6ZM888.972 101H895.572V143H888.972V101ZM910.055 143.6C906.815 143.6 904.335 142.68 902.615 140.84C900.895 139 900.035 136.4 900.035 133.04V110.96C900.035 107.6 900.895 105 902.615 103.16C904.335 101.32 906.815 100.4 910.055 100.4C913.295 100.4 915.775 101.32 917.495 103.16C919.215 105 920.075 107.6 920.075 110.96V133.04C920.075 136.4 919.215 139 917.495 140.84C915.775 142.68 913.295 143.6 910.055 143.6ZM910.055 137.6C912.335 137.6 913.475 136.22 913.475 133.46V110.54C913.475 107.78 912.335 106.4 910.055 106.4C907.775 106.4 906.635 107.78 906.635 110.54V133.46C906.635 136.22 907.775 137.6 910.055 137.6ZM924.538 101H932.818L939.238 126.14H939.358V101H945.238V143H938.458L930.538 112.34H930.418V143H924.538V101Z" fill="white"/>
<path d="M858.46 508.64H864.82V515H858.46V508.64ZM869.769 473H879.489C882.769 473 885.229 473.88 886.869 475.64C888.509 477.4 889.329 479.98 889.329 483.38V487.52C889.329 490.92 888.509 493.5 886.869 495.26C885.229 497.02 882.769 497.9 879.489 497.9H876.369V515H869.769V473ZM879.489 491.9C880.569 491.9 881.369 491.6 881.889 491C882.449 490.4 882.729 489.38 882.729 487.94V482.96C882.729 481.52 882.449 480.5 881.889 479.9C881.369 479.3 880.569 479 879.489 479H876.369V491.9H879.489ZM892.913 473H902.693C906.093 473 908.573 473.8 910.133 475.4C911.693 476.96 912.473 479.38 912.473 482.66V485.24C912.473 489.6 911.033 492.36 908.153 493.52V493.64C909.753 494.12 910.873 495.1 911.513 496.58C912.193 498.06 912.533 500.04 912.533 502.52V509.9C912.533 511.1 912.573 512.08 912.653 512.84C912.733 513.56 912.933 514.28 913.253 515H906.533C906.293 514.32 906.133 513.68 906.053 513.08C905.973 512.48 905.933 511.4 905.933 509.84V502.16C905.933 500.24 905.613 498.9 904.973 498.14C904.373 497.38 903.313 497 901.793 497H899.513V515H892.913V473ZM901.913 491C903.233 491 904.213 490.66 904.853 489.98C905.533 489.3 905.873 488.16 905.873 486.56V483.32C905.873 481.8 905.593 480.7 905.033 480.02C904.513 479.34 903.673 479 902.513 479H899.513V491H901.913ZM926.652 515.6C923.412 515.6 920.932 514.68 919.212 512.84C917.492 511 916.632 508.4 916.632 505.04V482.96C916.632 479.6 917.492 477 919.212 475.16C920.932 473.32 923.412 472.4 926.652 472.4C929.892 472.4 932.372 473.32 934.092 475.16C935.812 477 936.672 479.6 936.672 482.96V505.04C936.672 508.4 935.812 511 934.092 512.84C932.372 514.68 929.892 515.6 926.652 515.6ZM926.652 509.6C928.932 509.6 930.072 508.22 930.072 505.46V482.54C930.072 479.78 928.932 478.4 926.652 478.4C924.372 478.4 923.232 479.78 923.232 482.54V505.46C923.232 508.22 924.372 509.6 926.652 509.6ZM941.136 473H958.596V479H947.736V490.7H956.256V496.7H947.736V515H941.136V473ZM961.761 473H968.361V515H961.761V473ZM973.304 473H979.904V509H990.764V515H973.304V473ZM993.929 473H1011.93V479H1000.53V490.1H1009.59V496.1H1000.53V509H1011.93V515H993.929V473Z" fill="white"/>
<path d="M315.104 447.68C312.203 447.68 309.216 446.912 306.144 445.376C303.243 444.011 300.853 441.707 298.976 438.464C296.928 435.221 295.904 431.125 295.904 426.176C295.904 420.544 297.269 414.229 300 407.232C302.731 400.235 306.4 393.323 311.008 386.496C315.616 379.499 320.907 373.099 326.88 367.296C332.853 361.323 339.083 356.629 345.568 353.216C352.053 349.632 358.453 347.84 364.768 347.84C368.352 347.84 371.083 348.523 372.96 349.888C375.008 351.083 376.032 353.045 376.032 355.776C376.032 356.459 375.947 357.056 375.776 357.568C375.776 358.08 375.691 358.677 375.52 359.36C374.667 357.995 373.387 357.056 371.68 356.544C370.144 355.861 368.181 355.52 365.792 355.52C360.331 355.52 354.955 357.227 349.664 360.64C344.544 363.883 339.765 368.235 335.328 373.696C331.061 378.987 327.307 384.704 324.064 390.848C320.821 396.992 318.261 402.965 316.384 408.768C314.677 414.4 313.824 419.179 313.824 423.104C313.824 426.859 314.677 429.845 316.384 432.064C318.091 434.283 320.309 435.392 323.04 435.392C327.648 435.392 333.195 432.491 339.68 426.688C346.336 420.885 353.077 412.693 359.904 402.112C366.731 391.531 372.875 379.157 378.336 364.992C382.091 355.093 385.931 345.024 389.856 334.784C393.952 324.544 398.048 314.731 402.144 305.344C406.24 295.787 410.165 287.339 413.92 280C417.845 272.491 421.515 266.603 424.928 262.336C428.512 257.899 431.669 255.68 434.4 255.68C435.765 255.68 436.96 256.277 437.984 257.472C439.008 258.496 439.52 259.861 439.52 261.568C439.52 264.299 438.069 268.992 435.168 275.648C432.437 282.133 428.768 289.984 424.16 299.2C419.723 308.245 415.029 318.144 410.08 328.896C405.131 339.648 400.352 350.571 395.744 361.664C391.307 372.757 387.637 383.509 384.736 393.92C382.005 404.16 380.64 413.547 380.64 422.08C380.64 426.859 380.896 430.443 381.408 432.832C381.92 435.221 383.627 436.416 386.528 436.416C390.112 436.416 394.293 434.88 399.072 431.808C403.851 428.736 408.629 424.384 413.408 418.752C418.187 413.12 422.368 406.379 425.952 398.528L429.024 400.832C425.781 409.536 421.344 417.387 415.712 424.384C410.08 431.211 404.021 436.587 397.536 440.512C391.221 444.608 385.163 446.656 379.36 446.656C373.045 446.656 368.608 444.523 366.048 440.256C363.659 436.16 362.464 431.893 362.464 427.456C362.464 424.555 362.891 420.715 363.744 415.936C364.597 411.157 365.792 405.867 367.328 400.064C361.867 409.109 356.064 417.301 349.92 424.64C343.776 431.808 337.717 437.44 331.744 441.536C325.941 445.632 320.395 447.68 315.104 447.68ZM439.944 448.192C432.605 448.192 427.4 445.888 424.328 441.28C421.256 436.843 419.72 431.381 419.72 424.896C419.72 419.605 420.573 414.144 422.28 408.512C423.987 402.88 426.205 397.589 428.936 392.64C431.837 387.691 434.995 383.68 438.408 380.608C441.992 377.536 445.576 376 449.16 376C450.013 376 450.867 376.171 451.72 376.512C452.744 376.683 453.683 376.939 454.536 377.28C453 378.645 451.123 381.205 448.904 384.96C446.856 388.544 444.893 392.725 443.016 397.504C441.139 402.112 439.517 406.72 438.152 411.328C436.957 415.936 436.36 419.861 436.36 423.104C436.36 428.224 437.213 431.979 438.92 434.368C440.627 436.587 442.845 437.696 445.576 437.696C449.16 437.696 453.427 435.819 458.376 432.064C463.325 428.139 468.189 423.189 472.968 417.216C468.189 413.291 464.435 408.171 461.704 401.856C459.144 395.371 457.864 388.8 457.864 382.144C457.864 376.512 458.803 371.221 460.68 366.272C462.728 361.323 465.629 357.397 469.384 354.496C473.139 351.424 477.661 349.888 482.952 349.888C489.949 349.888 494.643 351.765 497.032 355.52C499.421 359.275 500.616 363.968 500.616 369.6C500.616 376.256 498.995 383.68 495.752 391.872C492.509 399.893 488.413 407.659 483.464 415.168C486.536 416.875 489.779 417.728 493.192 417.728C495.923 417.728 498.995 417.216 502.408 416.192C505.821 414.997 509.149 413.035 512.392 410.304C515.805 407.573 518.536 403.904 520.584 399.296L523.656 401.856C520.243 409.877 515.379 415.595 509.064 419.008C502.92 422.251 497.032 423.872 491.4 423.872C489.181 423.872 487.048 423.701 485 423.36C482.952 422.848 480.989 422.165 479.112 421.312C473.309 428.992 466.909 435.392 459.912 440.512C453.085 445.632 446.429 448.192 439.944 448.192ZM477.576 410.56C481.843 404.245 485.341 397.675 488.072 390.848C490.973 383.851 492.424 377.28 492.424 371.136C492.424 366.187 491.656 362.603 490.12 360.384C488.755 357.995 486.963 356.8 484.744 356.8C481.331 356.8 477.832 359.275 474.248 364.224C470.664 369.173 468.872 375.403 468.872 382.912C468.872 387.861 469.555 392.896 470.92 398.016C472.456 402.965 474.675 407.147 477.576 410.56ZM538.82 451.776C531.481 451.776 525.849 449.643 521.924 445.376C517.999 441.109 516.036 434.795 516.036 426.432C516.036 418.923 517.401 409.707 520.132 398.784C523.033 387.691 526.617 376.341 530.884 364.736C529.177 364.395 527.556 364.139 526.02 363.968C524.484 363.627 523.033 363.2 521.668 362.688V358.08C523.033 358.251 524.655 358.421 526.532 358.592C528.409 358.763 530.543 358.933 532.932 359.104C536.516 349.888 540.356 341.013 544.452 332.48C548.548 323.776 552.559 316.096 556.484 309.44C560.58 302.613 564.42 297.237 568.004 293.312C571.759 289.216 574.916 287.168 577.476 287.168C578.841 287.168 580.036 287.68 581.06 288.704C582.255 289.557 582.852 290.923 582.852 292.8C582.852 295.701 581.06 300.48 577.476 307.136C573.892 313.621 569.455 321.387 564.164 330.432C558.873 339.477 553.753 349.291 548.804 359.872C550.34 359.872 551.876 359.872 553.412 359.872C555.119 359.872 556.74 359.872 558.276 359.872C563.908 359.872 569.796 359.787 575.94 359.616C582.255 359.445 588.569 359.019 594.884 358.336V362.944C585.497 363.968 577.049 364.736 569.54 365.248C562.201 365.76 555.631 366.016 549.828 366.016C549.145 366.016 548.463 366.016 547.78 366.016C547.268 366.016 546.671 366.016 545.988 366.016C542.063 375.061 538.735 384.363 536.004 393.92C533.273 403.477 531.908 412.779 531.908 421.824C531.908 429.163 533.017 434.453 535.236 437.696C537.455 440.768 541.124 442.304 546.244 442.304C555.119 442.304 563.823 438.379 572.356 430.528C580.889 422.677 588.399 412.011 594.884 398.528L598.212 401.088C594.116 410.645 588.911 419.264 582.596 426.944C576.452 434.624 569.625 440.683 562.116 445.12C554.607 449.557 546.841 451.776 538.82 451.776ZM588.012 511.68C586.305 511.68 584.343 511.083 582.124 509.888C579.905 508.864 578.028 506.731 576.492 503.488C574.785 500.245 573.932 495.467 573.932 489.152C573.932 481.643 575.212 471.829 577.772 459.712C580.332 447.765 583.831 434.539 588.268 420.032C592.705 405.525 597.825 390.677 603.628 375.488C609.431 360.128 615.66 345.365 622.316 331.2C629.143 316.864 636.055 304.064 643.052 292.8C650.22 281.365 657.217 272.32 664.044 265.664C670.871 259.008 677.356 255.68 683.5 255.68C687.084 255.68 689.388 256.789 690.412 259.008C691.607 261.227 692.204 263.787 692.204 266.688C692.204 274.027 690.156 282.048 686.06 290.752C682.135 299.456 676.844 308.245 670.188 317.12C663.703 325.995 656.364 334.357 648.172 342.208C640.151 350.059 632.044 356.885 623.852 362.688C623.169 364.395 622.401 366.272 621.548 368.32C620.865 370.197 620.183 372.075 619.5 373.952C622.231 374.976 624.193 377.109 625.388 380.352C627.777 388.203 631.02 393.835 635.116 397.248C639.212 400.491 643.649 402.112 648.428 402.112C653.889 402.112 659.436 400.491 665.068 397.248C670.871 393.835 675.991 389.909 680.428 385.472C682.817 379.84 685.463 374.549 688.364 369.6C691.265 364.651 694.337 360.725 697.58 357.824C700.823 354.752 703.98 353.216 707.052 353.216C708.588 353.216 709.868 353.728 710.892 354.752C712.087 355.605 712.684 356.971 712.684 358.848C712.684 360.896 711.319 364.224 708.588 368.832C706.028 373.44 702.956 378.731 699.372 384.704C695.788 390.677 692.631 396.992 689.9 403.648C687.34 410.133 686.06 416.363 686.06 422.336C686.06 428.48 687.084 432.576 689.132 434.624C691.18 436.672 694.337 437.696 698.604 437.696C704.407 437.696 710.551 434.795 717.036 428.992C723.692 423.189 730.689 413.035 738.028 398.528L740.332 401.088C735.383 415.765 728.215 427.029 718.828 434.88C709.612 442.731 699.969 446.656 689.9 446.656C683.244 446.656 678.295 444.523 675.052 440.256C671.809 436.16 670.188 431.125 670.188 425.152C670.188 421.739 670.7 417.472 671.724 412.352C672.919 407.061 674.455 401.6 676.332 395.968C671.553 399.893 666.348 403.051 660.716 405.44C655.084 407.659 649.537 408.768 644.076 408.768C641.516 408.768 638.7 408.427 635.628 407.744C632.556 407.061 629.484 406.037 626.412 404.672C626.753 407.403 627.009 410.219 627.18 413.12C627.351 415.851 627.436 418.496 627.436 421.056C627.436 431.808 626.327 442.475 624.108 453.056C621.889 463.808 618.903 473.621 615.148 482.496C611.393 491.371 607.127 498.453 602.348 503.744C597.74 509.035 592.961 511.68 588.012 511.68ZM594.668 499.392C597.057 499.392 599.703 496.832 602.604 491.712C605.676 486.763 608.577 480.277 611.308 472.256C614.039 464.235 616.257 455.616 617.964 446.4C619.841 437.184 620.78 428.48 620.78 420.288C620.78 417.557 620.695 414.4 620.524 410.816C620.353 407.232 619.671 403.733 618.476 400.32C617.452 396.736 615.66 393.92 613.1 391.872C608.492 404.843 604.396 417.557 600.812 430.016C597.399 442.304 594.668 453.397 592.62 463.296C590.743 473.195 589.804 481.131 589.804 487.104C589.804 495.296 591.425 499.392 594.668 499.392ZM627.948 352.192C639.041 341.952 648.599 331.712 656.62 321.472C664.812 311.061 671.127 301.845 675.564 293.824C680.001 285.632 682.22 279.829 682.22 276.416C682.22 274.027 681.025 272.832 678.636 272.832C674.199 272.832 669.164 276.501 663.532 283.84C657.9 291.008 652.012 300.565 645.868 312.512C639.724 324.459 633.751 337.685 627.948 352.192ZM720.62 329.408C717.889 329.408 715.415 328.725 713.196 327.36C711.148 325.995 710.124 323.861 710.124 320.96C710.124 318.571 711.063 316.352 712.94 314.304C714.988 312.256 717.463 310.635 720.364 309.44C723.265 308.245 726.081 307.648 728.812 307.648C731.372 307.648 733.42 308.245 734.956 309.44C736.492 310.635 737.26 312.683 737.26 315.584C737.26 318.827 735.468 321.984 731.884 325.056C728.471 327.957 724.716 329.408 720.62 329.408ZM755.868 447.68C748.529 447.68 743.239 445.12 739.996 440C736.924 435.051 735.388 428.821 735.388 421.312C735.388 413.12 736.924 403.392 739.996 392.128C743.068 380.864 747.079 369.003 752.028 356.544C757.148 344.085 762.695 331.968 768.668 320.192C774.641 308.245 780.615 297.408 786.588 287.68C792.561 277.952 798.023 270.187 802.972 264.384C808.092 258.581 812.103 255.68 815.004 255.68C816.881 255.68 818.417 256.789 819.612 259.008C820.807 261.056 821.745 263.616 822.428 266.688C823.111 269.589 823.452 272.235 823.452 274.624C823.452 279.232 822.257 285.291 819.868 292.8C817.649 300.139 814.407 308.416 810.14 317.632C806.044 326.677 801.095 335.893 795.292 345.28C789.66 354.496 783.431 363.371 776.604 371.904C769.948 380.437 762.865 387.776 755.356 393.92C754.332 398.528 753.479 403.051 752.796 407.488C752.284 411.755 752.028 415.851 752.028 419.776C752.028 426.432 752.967 431.381 754.844 434.624C756.721 437.867 759.537 439.488 763.292 439.488C767.9 439.488 772.423 437.44 776.86 433.344C781.468 429.248 785.735 424.128 789.66 417.984C793.756 411.669 797.255 405.184 800.156 398.528L803.996 400.576C797.169 415.083 789.745 426.603 781.724 435.136C773.703 443.499 765.084 447.68 755.868 447.68ZM757.66 385.216C763.633 379.243 769.436 372.416 775.068 364.736C780.7 356.885 785.905 348.779 790.684 340.416C795.633 332.053 799.985 323.947 803.74 316.096C807.495 308.245 810.396 301.248 812.444 295.104C814.492 288.789 815.516 283.925 815.516 280.512C815.516 278.805 815.26 277.696 814.748 277.184C814.407 276.672 814.065 276.416 813.724 276.416C812.359 276.416 809.969 278.635 806.556 283.072C803.313 287.339 799.473 293.141 795.036 300.48C790.599 307.819 786.076 316.181 781.468 325.568C776.86 334.955 772.423 344.768 768.156 355.008C764.06 365.248 760.561 375.317 757.66 385.216ZM824.048 451.264C813.637 451.264 805.787 448.363 800.496 442.56C795.376 436.928 792.816 429.931 792.816 421.568C792.816 413.888 794.693 405.781 798.448 397.248C802.373 388.715 807.493 380.693 813.808 373.184C820.293 365.675 827.376 359.616 835.056 355.008C842.736 350.229 850.331 347.84 857.84 347.84C861.765 347.84 865.349 348.864 868.592 350.912C872.005 352.96 873.712 357.141 873.712 363.456C873.712 369.941 871.749 376.085 867.824 381.888C864.069 387.52 859.035 392.555 852.72 396.992C846.576 401.429 839.749 405.099 832.24 408C824.901 410.731 817.563 412.437 810.224 413.12C809.883 414.827 809.627 416.448 809.456 417.984C809.285 419.52 809.2 420.971 809.2 422.336C809.2 424.896 809.456 427.456 809.968 430.016C810.651 432.576 811.76 434.965 813.296 437.184C814.832 439.232 816.88 440.853 819.44 442.048C822.171 443.243 825.499 443.84 829.424 443.84C836.763 443.84 844.016 441.792 851.184 437.696C858.352 433.429 865.008 427.883 871.152 421.056C877.296 414.229 882.501 406.72 886.768 398.528L889.84 400.832C885.232 411.072 879.344 419.947 872.176 427.456C865.179 434.965 857.499 440.768 849.136 444.864C840.944 449.131 832.581 451.264 824.048 451.264ZM811.504 408.256C816.112 406.72 821.317 404.501 827.12 401.6C832.923 398.528 838.469 394.944 843.76 390.848C849.221 386.752 853.659 382.229 857.072 377.28C860.656 372.331 862.448 367.125 862.448 361.664C862.448 359.787 862.107 358.336 861.424 357.312C860.741 356.288 859.291 355.776 857.072 355.776C852.976 355.776 848.624 357.397 844.016 360.64C839.408 363.712 834.971 367.808 830.704 372.928C826.437 378.048 822.597 383.68 819.184 389.824C815.771 395.968 813.211 402.112 811.504 408.256ZM909.81 453.056C901.789 453.056 895.389 451.264 890.61 447.68C886.002 444.267 882.759 440 880.882 434.88C878.834 429.76 877.81 424.64 877.81 419.52C877.81 414.4 878.493 410.475 879.858 407.744C881.223 405.013 882.845 402.965 884.722 401.6C886.77 400.235 888.647 399.211 890.354 398.528C892.231 397.845 893.511 397.163 894.194 396.48C899.314 390.848 904.007 384.96 908.274 378.816C912.541 372.672 916.295 366.187 919.538 359.36V356.288C919.538 349.973 920.562 345.536 922.61 342.976C924.829 340.245 927.133 338.88 929.522 338.88C930.887 338.88 931.911 339.221 932.594 339.904C933.277 340.587 933.618 341.355 933.618 342.208C933.618 343.061 933.362 344.427 932.85 346.304C932.338 348.181 932.082 350.571 932.082 353.472C932.082 359.104 933.191 365.248 935.41 371.904C937.629 378.389 939.847 385.301 942.066 392.64C944.285 399.808 945.394 407.317 945.394 415.168C945.394 417.387 945.223 419.605 944.882 421.824C944.711 423.872 944.37 425.835 943.858 427.712C949.831 426.688 955.463 424.043 960.754 419.776C966.045 415.339 971.165 408.341 976.114 398.784L978.418 401.344C975.175 410.731 970.311 417.899 963.826 422.848C957.341 427.627 950.258 430.613 942.578 431.808C939.847 439.147 935.495 444.523 929.522 447.936C923.719 451.349 917.149 453.056 909.81 453.056ZM910.322 444.096C912.37 444.096 915.101 443.413 918.514 442.048C921.927 440.683 924.573 437.184 926.45 431.552C919.282 430.187 912.882 427.371 907.25 423.104C901.789 418.837 897.693 414.571 894.962 410.304C891.207 410.475 889.33 413.461 889.33 419.264C889.33 425.408 891.122 431.125 894.706 436.416C898.461 441.536 903.666 444.096 910.322 444.096ZM927.73 427.456C928.071 425.749 928.327 423.957 928.498 422.08C928.669 420.203 928.754 417.984 928.754 415.424C928.754 407.403 927.73 399.467 925.682 391.616C923.805 383.595 922.183 376.085 920.818 369.088C916.893 375.573 912.711 381.803 908.274 387.776C904.007 393.579 899.911 398.443 895.986 402.368C898.546 407.829 902.471 412.949 907.762 417.728C913.223 422.507 919.879 425.749 927.73 427.456Z" fill="#684141"/>
</svg>
